<svg width="780" height="580" viewBox="0 0 780 580" fill="none" xmlns="http://www.w3.org/2000/svg">
<g id="undraw_Updated_resume_re_q1or 1" clip-path="url(#clip0)">
<path id="Rectangle 62" d="M703.876 19.289H0.300003V353.148H703.876V19.289Z" fill="#E6E6E6"/>
<path id="Rectangle 75" d="M683.758 47.918H20.419V326.467H683.758V47.918Z" fill="white"/>
<path id="Rectangle 80" d="M703.576 0H0V29.89H703.576V0Z" fill="#3A4750"/>
<path id="Ellipse 90" d="M22.212 23.116C25.2716 23.116 27.752 20.6356 27.752 17.576C27.752 14.5163 25.2716 12.036 22.212 12.036C19.1523 12.036 16.672 14.5163 16.672 17.576C16.672 20.6356 19.1523 23.116 22.212 23.116Z" fill="white"/>
<path id="Ellipse 91" d="M43.24 23.116C46.2997 23.116 48.78 20.6356 48.78 17.576C48.78 14.5163 46.2997 12.036 43.24 12.036C40.1803 12.036 37.7 14.5163 37.7 17.576C37.7 20.6356 40.1803 23.116 43.24 23.116Z" fill="white"/>
<path id="Ellipse 92" d="M64.269 23.116C67.3286 23.116 69.809 20.6356 69.809 17.576C69.809 14.5163 67.3286 12.036 64.269 12.036C61.2093 12.036 58.729 14.5163 58.729 17.576C58.729 20.6356 61.2093 23.116 64.269 23.116Z" fill="white"/>
<path id="Vector" d="M496.078 90.2678H402.655V97.2897H496.078V90.2678Z" fill="#E6E6E6"/>
<path id="Vector_2" d="M546.92 110.882H402.655V117.904H546.92V110.882Z" fill="#3A4750"/>
<path id="Vector_3" d="M521.728 130.514H404.155V137.536H521.728V130.514Z" fill="#E6E6E6"/>
<path id="Vector_4" d="M471.292 152.055H402.655V159.076H471.292V152.055Z" fill="#E6E6E6"/>
<path id="Vector_5" d="M506.246 173.095H402.655V180.117H506.246V173.095Z" fill="#3A4750"/>
<path id="Vector_6" d="M371.514 88.0589H360.074V99.4985H371.514V88.0589Z" fill="#E6E6E6"/>
<path id="Vector_7" d="M371.514 108.673H360.074V120.112H371.514V108.673Z" fill="#3A4750"/>
<path id="Vector_8" d="M371.514 128.305H360.074V139.744H371.514V128.305Z" fill="#E6E6E6"/>
<path id="Vector_9" d="M371.514 149.846H360.074V161.285H371.514V149.846Z" fill="#E6E6E6"/>
<path id="Vector_10" d="M371.514 170.887H360.074V182.326H371.514V170.887Z" fill="#3A4750"/>
<path id="Vector_11" d="M496.078 194.268H402.655V201.29H496.078V194.268Z" fill="#E6E6E6"/>
<path id="Vector_12" d="M546.92 214.882H402.655V221.904H546.92V214.882Z" fill="#3A4750"/>
<path id="Vector_13" d="M521.728 234.514H404.155V241.536H521.728V234.514Z" fill="#E6E6E6"/>
<path id="Vector_14" d="M471.292 256.055H402.655V263.076H471.292V256.055Z" fill="#E6E6E6"/>
<path id="Vector_15" d="M506.246 277.095H402.655V284.117H506.246V277.095Z" fill="#E6E6E6"/>
<path id="Vector_16" d="M371.514 192.059H360.074V203.498H371.514V192.059Z" fill="#E6E6E6"/>
<path id="Vector_17" d="M371.514 212.673H360.074V224.112H371.514V212.673Z" fill="#3A4750"/>
<path id="Vector_18" d="M371.514 232.305H360.074V243.744H371.514V232.305Z" fill="#E6E6E6"/>
<path id="Vector_19" d="M371.514 253.846H360.074V265.285H371.514V253.846Z" fill="#E6E6E6"/>
<path id="Vector_20" d="M371.514 274.887H360.074V286.326H371.514V274.887Z" fill="#E6E6E6"/>
<path id="Vector_21" d="M200.535 249.347H107.112V256.369H200.535V249.347Z" fill="#3F3D56"/>
<path id="Vector_22" d="M212.186 267.593H94.6123V274.615H212.186V267.593Z" fill="#3F3D56"/>
<path id="Vector_23" d="M214.544 160.77C214.54 171.323 211.8 181.696 206.589 190.873C201.379 200.051 193.878 207.721 184.818 213.133C175.758 218.546 165.449 221.516 154.898 221.754C144.347 221.992 133.915 219.49 124.62 214.491L124.608 214.479C115.114 209.364 107.145 201.824 101.514 192.627C95.8826 183.429 92.7903 172.903 92.552 162.122C92.3136 151.34 94.9377 140.688 100.157 131.25C105.376 121.813 113.004 113.928 122.263 108.398C131.522 102.869 142.081 99.8929 152.865 99.7734C163.648 99.6539 174.271 102.395 183.65 107.718C193.03 113.041 200.83 120.755 206.257 130.074C211.684 139.394 214.544 149.985 214.544 160.77V160.77Z" fill="#3F3D56"/>
<path id="Vector_24" d="M153.855 157.809C163.013 157.809 170.438 150.384 170.438 141.226C170.438 132.068 163.013 124.643 153.855 124.643C144.697 124.643 137.273 132.068 137.273 141.226C137.273 150.384 144.697 157.809 153.855 157.809Z" fill="white"/>
<path id="Vector_25" d="M182.17 192.072C163.632 198.579 143.418 198.501 124.931 191.85L124.919 191.842L137.273 167.456H170.438L182.17 192.072Z" fill="white"/>
<path id="Vector_26" d="M656.072 567.394H643.813L637.98 520.106L656.075 520.107L656.072 567.394Z" fill="#FFB7B7"/>
<path id="Vector_27" d="M659.199 579.278L619.668 579.277V578.777C619.669 574.696 621.29 570.783 624.175 567.897C627.061 565.012 630.974 563.391 635.055 563.391H635.056L659.2 563.392L659.199 579.278Z" fill="#2F2E41"/>
<path id="Vector_28" d="M686.016 567.394H698.276L704.108 520.106L686.014 520.107L686.016 567.394Z" fill="#FFB7B7"/>
<path id="Vector_29" d="M682.889 563.392L707.033 563.391H707.034C711.114 563.391 715.028 565.012 717.913 567.897C720.799 570.783 722.42 574.696 722.42 578.777V579.277L682.889 579.278L682.889 563.392Z" fill="#2F2E41"/>
<path id="Vector_30" d="M653.348 197.854C658.614 187.255 654.291 174.395 643.692 169.129C633.094 163.864 620.234 168.186 614.968 178.785C609.702 189.383 614.025 202.244 624.623 207.509C635.222 212.775 648.082 208.452 653.348 197.854Z" fill="#FFB7B7"/>
<path id="Vector_31" d="M618.379 335.731C618.379 335.731 611.612 363.926 614.996 377.459C618.379 390.993 628.529 483.472 628.529 483.472L635.296 556.779L662.363 559.034L658.98 473.322L662.363 398.887L681.535 471.066V557.035L710.241 558.162L710.858 446.255C710.858 446.255 713.114 358.287 698.452 347.009C683.791 335.731 681.535 333.475 681.535 333.475L618.379 335.731Z" fill="#2F2E41"/>
<path id="Vector_32" d="M659.24 211.673L684.919 225.207L688.302 342.498C688.302 342.498 673.641 333.475 651.085 344.753C628.529 356.031 613.868 348.137 613.868 348.137L627.401 297.386L621.762 229.718L629.828 222.397L659.24 211.673Z" fill="#CBCBCB"/>
<path id="Vector_33" d="M629.83 220.263L625.146 224.079C625.146 224.079 595.823 238.74 594.695 248.891L614.995 304.153C614.995 304.153 620.635 316.558 616.123 321.069C611.612 325.581 607.101 336.859 608.229 342.498C609.356 348.137 601.462 371.82 610.484 371.82C619.507 371.82 640.935 317.686 639.807 296.258C638.679 274.83 637.899 218.702 629.83 220.263Z" fill="#2F2E41"/>
<path id="Vector_34" d="M649.544 212.944L659.874 211.225C659.874 211.225 698.219 221.375 703.858 238.292L688.069 277.765C688.069 277.765 699.347 349.944 695.964 349.944H692.58C692.58 349.944 701.603 356.711 695.964 358.966C690.325 361.222 676.791 379.267 673.408 371.372C670.024 363.478 649.724 269.871 651.98 249.57C654.235 229.27 647.541 215.071 649.544 212.944Z" fill="#2F2E41"/>
<path id="Vector_35" d="M654.027 167.338L655.031 165.318L649.981 162.809C649.981 162.809 644.41 153.744 634.329 156.292C624.248 158.839 619.713 160.363 619.713 160.363L614.675 162.898L617.204 165.413L612.668 166.938L615.698 168.443L612.173 170.47L614.07 180.858C614.07 180.858 617.223 172.979 623.283 175.99C629.343 179.001 640.427 174.433 640.427 174.433L650.057 193.071C650.057 193.071 652.044 186.537 655.586 188.279C655.586 188.279 664.635 173.868 654.027 167.338Z" fill="#2F2E41"/>
<path id="Vector_36" d="M685.396 365.237C684.839 363.876 684.587 362.41 684.657 360.942C684.728 359.474 685.12 358.039 685.805 356.738C686.49 355.437 687.452 354.303 688.623 353.414C689.795 352.526 691.146 351.905 692.584 351.595L696.925 316.125L711.07 328.156L704.779 359.994C705.139 362.443 704.589 364.939 703.232 367.009C701.875 369.078 699.805 370.579 697.416 371.225C695.027 371.871 692.484 371.618 690.268 370.515C688.053 369.411 686.319 367.533 685.396 365.237V365.237Z" fill="#FFB7B7"/>
<path id="Vector_37" d="M624.894 362.796C625.304 361.384 625.399 359.9 625.173 358.447C624.947 356.995 624.405 355.609 623.586 354.388C622.767 353.168 621.69 352.142 620.431 351.382C619.172 350.623 617.762 350.149 616.3 349.993L608.223 315.183L595.433 328.646L605.064 359.638C604.966 362.111 605.778 364.535 607.347 366.449C608.916 368.363 611.132 369.636 613.576 370.025C616.021 370.414 618.523 369.893 620.609 368.561C622.695 367.229 624.219 365.177 624.894 362.796V362.796Z" fill="#FFB7B7"/>
<path id="Vector_38" d="M685.941 229.101C685.941 229.101 700.603 223.462 705.114 240.379C709.625 257.296 715.264 291.13 715.264 291.13C715.544 309.944 714.544 309.944 715.264 328.347L711.881 345.264L692.708 343.009L693.544 299.944L683.686 256.168L685.941 229.101Z" fill="#2F2E41"/>
<path id="Vector_39" d="M604.845 242.124L597.894 242.867C597.894 242.867 591.312 247.763 591.312 259.041C591.312 270.319 590.184 304.153 590.184 304.153C590.184 304.153 589.544 304.944 594.695 333.475C597.206 347.382 601.544 353.944 601.544 353.944L615.544 340.944L613.868 307.536L618.379 289.491L604.845 242.124Z" fill="#2F2E41"/>
<path id="Vector_40" d="M778.32 579.944H554.32C554.055 579.944 553.8 579.839 553.613 579.651C553.425 579.464 553.32 579.209 553.32 578.944C553.32 578.679 553.425 578.424 553.613 578.237C553.8 578.049 554.055 577.944 554.32 577.944H778.32C778.585 577.944 778.839 578.049 779.027 578.237C779.215 578.424 779.32 578.679 779.32 578.944C779.32 579.209 779.215 579.464 779.027 579.651C778.839 579.839 778.585 579.944 778.32 579.944Z" fill="#CBCBCB"/>
<path id="Vector_41" d="M312.32 579.944H193.32C193.055 579.944 192.8 579.839 192.613 579.651C192.425 579.464 192.32 579.209 192.32 578.944C192.32 578.679 192.425 578.424 192.613 578.237C192.8 578.049 193.055 577.944 193.32 577.944H312.32C312.585 577.944 312.839 578.049 313.027 578.237C313.215 578.424 313.32 578.679 313.32 578.944C313.32 579.209 313.215 579.464 313.027 579.651C312.839 579.839 312.585 579.944 312.32 579.944Z" fill="#CBCBCB"/>
</g>
<defs>
<clipPath id="clip0">
<rect width="779.32" height="579.944" fill="white"/>
</clipPath>
</defs>
</svg>
