<svg width="1096" height="575" viewBox="0 0 1096 575" fill="none" xmlns="http://www.w3.org/2000/svg">
<g clip-path="url(#clip0)">
<g opacity="0.1">
<path opacity="0.1" d="M479.42 377.02C485.705 377.02 490.8 370.349 490.8 362.12C490.8 353.891 485.705 347.22 479.42 347.22C473.135 347.22 468.04 353.891 468.04 362.12C468.04 370.349 473.135 377.02 479.42 377.02Z" fill="#3F3D56"/>
<path opacity="0.1" d="M488.43 298.37C490.018 295.598 490.839 292.454 490.81 289.26C490.81 281.03 485.71 274.36 479.42 274.36C473.13 274.36 468 281.05 468 289.28C467.971 292.474 468.792 295.618 470.38 298.39C468.82 301.171 468.001 304.306 468.001 307.495C468.001 310.684 468.82 313.819 470.38 316.6C468.82 319.381 468.001 322.516 468.001 325.705C468.001 328.894 468.82 332.029 470.38 334.81C468.79 337.581 467.968 340.726 468 343.92C468 352.14 473.1 358.82 479.38 358.82C485.66 358.82 490.77 352.14 490.77 343.92C490.802 340.726 489.98 337.581 488.39 334.81C489.95 332.029 490.769 328.894 490.769 325.705C490.769 322.516 489.95 319.381 488.39 316.6C489.95 313.819 490.769 310.684 490.769 307.495C490.769 304.306 489.95 301.171 488.39 298.39L488.43 298.37Z" fill="#3F3D56"/>
<path opacity="0.1" d="M479.42 285.97C485.705 285.97 490.8 279.299 490.8 271.07C490.8 262.841 485.705 256.17 479.42 256.17C473.135 256.17 468.04 262.841 468.04 271.07C468.04 279.299 473.135 285.97 479.42 285.97Z" fill="#3F3D56"/>
<path opacity="0.1" d="M479.42 267.76C485.705 267.76 490.8 261.089 490.8 252.86C490.8 244.631 485.705 237.96 479.42 237.96C473.135 237.96 468.04 244.631 468.04 252.86C468.04 261.089 473.135 267.76 479.42 267.76Z" fill="#3F3D56"/>
<path opacity="0.1" d="M436.82 128.23C435.26 126.253 433.844 124.168 432.58 121.99L462.48 117.08L430.14 117.32C427.044 110.566 425.358 103.251 425.186 95.8231C425.014 88.3951 426.36 81.0102 429.14 74.12L472.53 96.63L432.53 67.21C436.249 60.6725 441.28 54.9749 447.307 50.4755C453.334 45.9761 460.226 42.7721 467.551 41.065C474.876 39.3578 482.475 39.1844 489.87 40.5556C497.265 41.9268 504.296 44.813 510.522 49.0328C516.748 53.2526 522.034 58.7147 526.047 65.0757C530.06 71.4368 532.714 78.5592 533.842 85.9954C534.969 93.4316 534.547 101.021 532.6 108.285C530.653 115.55 527.225 122.334 522.53 128.21C524.955 131.29 527.04 134.623 528.75 138.15L489.92 158.37L531.31 144.48C534.219 153.072 534.939 162.254 533.404 171.194C531.869 180.134 528.128 188.55 522.52 195.68C528.846 203.722 532.782 213.381 533.877 223.554C534.972 233.728 533.182 244.004 528.712 253.207C524.242 262.411 517.272 270.171 508.6 275.601C499.927 281.03 489.902 283.909 479.67 283.909C469.438 283.909 459.413 281.03 450.74 275.601C442.068 270.171 435.098 262.411 430.628 253.207C426.158 244.004 424.368 233.728 425.463 223.554C426.558 213.381 430.494 203.722 436.82 195.68C429.26 186.07 425.149 174.197 425.149 161.97C425.149 149.743 429.26 137.87 436.82 128.26V128.23Z" fill="#6C63FF"/>
<path opacity="0.1" d="M534.19 161.94C534.21 174.171 530.097 186.049 522.52 195.65C528.846 203.692 532.782 213.351 533.877 223.524C534.972 233.698 533.182 243.973 528.712 253.177C524.242 262.381 517.272 270.141 508.6 275.571C499.927 281 489.902 283.879 479.67 283.879C469.438 283.879 459.413 281 450.74 275.571C442.068 270.141 435.098 262.381 430.628 253.177C426.158 243.973 424.368 233.698 425.463 223.524C426.558 213.351 430.494 203.692 436.82 195.65C429.51 186.37 534.19 155.82 534.19 161.94Z" fill="black"/>
</g>
<g opacity="0.1">
<path opacity="0.1" d="M612.28 341.39C616.98 341.39 620.79 336.407 620.79 330.26C620.79 324.113 616.98 319.13 612.28 319.13C607.58 319.13 603.77 324.113 603.77 330.26C603.77 336.407 607.58 341.39 612.28 341.39Z" fill="#3F3D56"/>
<path opacity="0.1" d="M619 282.63C620.183 280.561 620.794 278.214 620.77 275.83C620.77 269.68 616.96 264.69 612.27 264.69C607.58 264.69 603.76 269.69 603.76 275.83C603.734 278.215 604.349 280.563 605.54 282.63C604.373 284.708 603.76 287.052 603.76 289.435C603.76 291.818 604.373 294.162 605.54 296.24C604.373 298.318 603.76 300.662 603.76 303.045C603.76 305.428 604.373 307.772 605.54 309.85C604.349 311.917 603.734 314.265 603.76 316.65C603.76 322.8 607.57 327.79 612.27 327.79C616.97 327.79 620.77 322.79 620.77 316.65C620.794 314.266 620.183 311.919 619 309.85C620.158 307.769 620.765 305.427 620.765 303.045C620.765 300.663 620.158 298.321 619 296.24C620.158 294.159 620.765 291.817 620.765 289.435C620.765 287.053 620.158 284.711 619 282.63V282.63Z" fill="#3F3D56"/>
<path opacity="0.1" d="M612.28 273.35C616.98 273.35 620.79 268.367 620.79 262.22C620.79 256.073 616.98 251.09 612.28 251.09C607.58 251.09 603.77 256.073 603.77 262.22C603.77 268.367 607.58 273.35 612.28 273.35Z" fill="#3F3D56"/>
<path opacity="0.1" d="M612.28 259.74C616.98 259.74 620.79 254.757 620.79 248.61C620.79 242.463 616.98 237.48 612.28 237.48C607.58 237.48 603.77 242.463 603.77 248.61C603.77 254.757 607.58 259.74 612.28 259.74Z" fill="#3F3D56"/>
<path opacity="0.1" d="M580.44 155.48C579.272 154.005 578.213 152.448 577.27 150.82L599.62 147.15L575.45 147.33C573.131 142.284 571.866 136.817 571.732 131.265C571.598 125.713 572.598 120.192 574.67 115.04L607.1 131.87L577.19 109.87C579.987 105.018 583.754 100.795 588.257 97.4641C592.759 94.1332 597.899 91.7661 603.357 90.5105C608.815 89.2549 614.473 89.1378 619.978 90.1665C625.483 91.1952 630.717 93.3476 635.353 96.4893C639.989 99.6311 643.928 103.695 646.924 108.427C649.919 113.159 651.907 118.457 652.764 123.992C653.62 129.526 653.327 135.178 651.901 140.594C650.476 146.01 647.95 151.074 644.48 155.47C646.29 157.774 647.849 160.265 649.13 162.9L620.13 177.97L651.06 167.59C653.233 174.011 653.77 180.872 652.622 187.552C651.475 194.233 648.68 200.522 644.49 205.85C649.224 211.858 652.171 219.076 652.993 226.68C653.816 234.284 652.482 241.967 649.144 248.848C645.805 255.729 640.597 261.532 634.114 265.591C627.632 269.651 620.138 271.804 612.49 271.804C604.842 271.804 597.348 269.651 590.866 265.591C584.383 261.532 579.175 255.729 575.836 248.848C572.498 241.967 571.164 234.284 571.987 226.68C572.809 219.076 575.756 211.858 580.49 205.85C574.84 198.669 571.769 189.797 571.769 180.66C571.769 171.523 574.84 162.651 580.49 155.47L580.44 155.48Z" fill="#6C63FF"/>
<path opacity="0.1" d="M653.2 180.67C653.214 189.809 650.141 198.685 644.48 205.86C649.214 211.868 652.16 219.086 652.983 226.69C653.806 234.294 652.472 241.977 649.134 248.858C645.795 255.739 640.587 261.542 634.104 265.601C627.622 269.661 620.128 271.814 612.48 271.814C604.832 271.814 597.338 269.661 590.856 265.601C584.373 261.542 579.165 255.739 575.826 248.858C572.488 241.977 571.154 234.294 571.976 226.69C572.799 219.086 575.746 211.868 580.48 205.86C575 198.93 653.2 176.1 653.2 180.67Z" fill="black"/>
</g>
<g opacity="0.1">
<path opacity="0.1" d="M1038.58 337.02C1044.86 337.02 1049.96 330.349 1049.96 322.12C1049.96 313.891 1044.86 307.22 1038.58 307.22C1032.29 307.22 1027.2 313.891 1027.2 322.12C1027.2 330.349 1032.29 337.02 1038.58 337.02Z" fill="#3F3D56"/>
<path opacity="0.1" d="M1029.57 258.37C1027.98 255.598 1027.16 252.454 1027.19 249.26C1027.19 241.03 1032.29 234.36 1038.58 234.36C1044.87 234.36 1049.96 241.03 1049.96 249.26C1049.99 252.454 1049.17 255.598 1047.58 258.37C1049.14 261.151 1049.96 264.286 1049.96 267.475C1049.96 270.664 1049.14 273.799 1047.58 276.58C1049.14 279.361 1049.96 282.496 1049.96 285.685C1049.96 288.874 1049.14 292.009 1047.58 294.79C1049.17 297.561 1049.99 300.706 1049.96 303.9C1049.96 312.12 1044.86 318.8 1038.58 318.8C1032.3 318.8 1027.19 312.12 1027.19 303.9C1027.16 300.706 1027.98 297.561 1029.57 294.79C1028.01 292.009 1027.19 288.874 1027.19 285.685C1027.19 282.496 1028.01 279.361 1029.57 276.58C1028.01 273.799 1027.19 270.664 1027.19 267.475C1027.19 264.286 1028.01 261.151 1029.57 258.37V258.37Z" fill="#3F3D56"/>
<path opacity="0.1" d="M1038.58 245.97C1044.86 245.97 1049.96 239.299 1049.96 231.07C1049.96 222.841 1044.86 216.17 1038.58 216.17C1032.29 216.17 1027.2 222.841 1027.2 231.07C1027.2 239.299 1032.29 245.97 1038.58 245.97Z" fill="#3F3D56"/>
<path opacity="0.1" d="M1038.58 227.76C1044.86 227.76 1049.96 221.089 1049.96 212.86C1049.96 204.631 1044.86 197.96 1038.58 197.96C1032.29 197.96 1027.2 204.631 1027.2 212.86C1027.2 221.089 1032.29 227.76 1038.58 227.76Z" fill="#3F3D56"/>
<path opacity="0.1" d="M1081.18 88.23C1082.74 86.2532 1084.16 84.1679 1085.42 81.99L1055.52 77.08L1087.86 77.32C1090.96 70.5659 1092.64 63.2511 1092.81 55.8231C1092.99 48.3951 1091.64 41.0102 1088.86 34.12L1045.47 56.63L1085.47 27.21C1081.75 20.6725 1076.72 14.9749 1070.69 10.4755C1064.67 5.97612 1057.77 2.77213 1050.45 1.06497C1043.12 -0.642197 1035.53 -0.81562 1028.13 0.555599C1020.74 1.92682 1013.7 4.81303 1007.48 9.0328C1001.25 13.2526 995.966 18.7147 991.953 25.0757C987.94 31.4368 985.286 38.5592 984.158 45.9954C983.031 53.4316 983.453 61.0206 985.4 68.2855C987.347 75.5504 990.775 82.334 995.47 88.21C993.045 91.2902 990.96 94.6228 989.25 98.15L1028.08 118.37L986.69 104.48C983.781 113.072 983.061 122.254 984.596 131.194C986.131 140.134 989.872 148.55 995.48 155.68C989.154 163.722 985.218 173.381 984.123 183.554C983.028 193.728 984.818 204.004 989.288 213.207C993.758 222.411 1000.73 230.171 1009.4 235.601C1018.07 241.03 1028.1 243.909 1038.33 243.909C1048.56 243.909 1058.59 241.03 1067.26 235.601C1075.93 230.171 1082.9 222.411 1087.37 213.207C1091.84 204.004 1093.63 193.728 1092.54 183.554C1091.44 173.381 1087.51 163.722 1081.18 155.68C1088.74 146.07 1092.85 134.197 1092.85 121.97C1092.85 109.743 1088.74 97.87 1081.18 88.26V88.23Z" fill="#6C63FF"/>
<path opacity="0.1" d="M983.81 121.94C983.79 134.171 987.903 146.049 995.48 155.65C989.154 163.692 985.218 173.351 984.123 183.525C983.028 193.698 984.818 203.973 989.288 213.177C993.758 222.381 1000.73 230.141 1009.4 235.571C1018.07 241 1028.1 243.879 1038.33 243.879C1048.56 243.879 1058.59 241 1067.26 235.571C1075.93 230.141 1082.9 222.381 1087.37 213.177C1091.84 203.973 1093.63 193.698 1092.54 183.525C1091.44 173.351 1087.51 163.692 1081.18 155.65C1088.49 146.37 983.81 115.82 983.81 121.94Z" fill="black"/>
</g>
<g opacity="0.1">
<path opacity="0.1" d="M928.72 335.39C933.42 335.39 937.23 330.407 937.23 324.26C937.23 318.113 933.42 313.13 928.72 313.13C924.02 313.13 920.21 318.113 920.21 324.26C920.21 330.407 924.02 335.39 928.72 335.39Z" fill="#3F3D56"/>
<path opacity="0.1" d="M922 276.63C920.817 274.561 920.206 272.214 920.23 269.83C920.23 263.68 924.04 258.69 928.73 258.69C933.42 258.69 937.24 263.69 937.24 269.83C937.266 272.215 936.651 274.563 935.46 276.63C936.627 278.708 937.24 281.052 937.24 283.435C937.24 285.818 936.627 288.162 935.46 290.24C936.627 292.318 937.24 294.662 937.24 297.045C937.24 299.428 936.627 301.772 935.46 303.85C936.651 305.917 937.266 308.265 937.24 310.65C937.24 316.8 933.43 321.79 928.73 321.79C924.03 321.79 920.23 316.79 920.23 310.65C920.206 308.266 920.817 305.919 922 303.85C920.842 301.769 920.235 299.427 920.235 297.045C920.235 294.663 920.842 292.321 922 290.24C920.842 288.159 920.235 285.817 920.235 283.435C920.235 281.053 920.842 278.711 922 276.63Z" fill="#3F3D56"/>
<path opacity="0.1" d="M928.72 267.35C933.42 267.35 937.23 262.367 937.23 256.22C937.23 250.073 933.42 245.09 928.72 245.09C924.02 245.09 920.21 250.073 920.21 256.22C920.21 262.367 924.02 267.35 928.72 267.35Z" fill="#3F3D56"/>
<path opacity="0.1" d="M928.72 253.74C933.42 253.74 937.23 248.757 937.23 242.61C937.23 236.463 933.42 231.48 928.72 231.48C924.02 231.48 920.21 236.463 920.21 242.61C920.21 248.757 924.02 253.74 928.72 253.74Z" fill="#3F3D56"/>
<path opacity="0.1" d="M960.56 149.48C961.728 148.005 962.787 146.448 963.73 144.82L941.38 141.15L965.55 141.33C967.869 136.284 969.134 130.817 969.268 125.265C969.402 119.713 968.402 114.192 966.33 109.04L933.9 125.87L963.81 103.87C961.013 99.0182 957.246 94.795 952.743 91.4641C948.241 88.1332 943.101 85.7661 937.643 84.5105C932.185 83.2549 926.527 83.1378 921.022 84.1665C915.517 85.1952 910.283 87.3476 905.647 90.4893C901.011 93.6311 897.072 97.6947 894.076 102.427C891.081 107.159 889.093 112.457 888.236 117.992C887.38 123.526 887.673 129.178 889.099 134.594C890.524 140.01 893.05 145.074 896.52 149.47C894.71 151.774 893.151 154.265 891.87 156.9L920.87 171.97L890 161.6C887.827 168.021 887.291 174.882 888.438 181.562C889.585 188.243 892.38 194.532 896.57 199.86C891.836 205.868 888.89 213.086 888.067 220.69C887.244 228.294 888.578 235.977 891.916 242.858C895.255 249.739 900.464 255.542 906.946 259.601C913.428 263.661 920.922 265.814 928.57 265.814C936.218 265.814 943.712 263.661 950.194 259.601C956.677 255.542 961.885 249.739 965.224 242.858C968.562 235.977 969.896 228.294 969.074 220.69C968.251 213.086 965.304 205.868 960.57 199.86C966.22 192.679 969.291 183.807 969.291 174.67C969.291 165.533 966.22 156.661 960.57 149.48H960.56Z" fill="#6C63FF"/>
<path opacity="0.1" d="M887.8 174.67C887.786 183.809 890.859 192.685 896.52 199.86C891.786 205.868 888.839 213.086 888.017 220.69C887.194 228.294 888.528 235.977 891.866 242.858C895.205 249.739 900.413 255.542 906.895 259.601C913.378 263.661 920.872 265.814 928.52 265.814C936.168 265.814 943.662 263.661 950.144 259.601C956.627 255.542 961.835 249.739 965.174 242.858C968.512 235.977 969.846 228.294 969.023 220.69C968.201 213.086 965.254 205.868 960.52 199.86C966 192.93 887.8 170.1 887.8 174.67Z" fill="black"/>
</g>
<g opacity="0.1">
<path opacity="0.1" d="M61.59 337.02C67.875 337.02 72.97 330.349 72.97 322.12C72.97 313.891 67.875 307.22 61.59 307.22C55.305 307.22 50.21 313.891 50.21 322.12C50.21 330.349 55.305 337.02 61.59 337.02Z" fill="#3F3D56"/>
<path opacity="0.1" d="M70.59 258.37C72.1775 255.598 72.999 252.454 72.97 249.26C72.97 241.03 67.87 234.36 61.59 234.36C55.31 234.36 50.21 241.03 50.21 249.26C50.1779 252.453 50.9959 255.597 52.58 258.37C51.0254 261.153 50.2093 264.287 50.2093 267.475C50.2093 270.663 51.0254 273.797 52.58 276.58C51.0254 279.363 50.2093 282.497 50.2093 285.685C50.2093 288.873 51.0254 292.007 52.58 294.79C50.9927 297.561 50.1745 300.706 50.21 303.9C50.21 312.12 55.3 318.8 61.59 318.8C67.88 318.8 73 312.14 73 303.92C73.0319 300.726 72.2103 297.581 70.62 294.81C72.1801 292.029 72.9994 288.894 72.9994 285.705C72.9994 282.516 72.1801 279.381 70.62 276.6C72.1801 273.819 72.9994 270.684 72.9994 267.495C72.9994 264.306 72.1801 261.171 70.62 258.39L70.59 258.37Z" fill="#3F3D56"/>
<path opacity="0.1" d="M61.59 245.97C67.875 245.97 72.97 239.299 72.97 231.07C72.97 222.841 67.875 216.17 61.59 216.17C55.305 216.17 50.21 222.841 50.21 231.07C50.21 239.299 55.305 245.97 61.59 245.97Z" fill="#3F3D56"/>
<path opacity="0.1" d="M61.59 227.76C67.875 227.76 72.97 221.089 72.97 212.86C72.97 204.631 67.875 197.96 61.59 197.96C55.305 197.96 50.21 204.631 50.21 212.86C50.21 221.089 55.305 227.76 61.59 227.76Z" fill="#3F3D56"/>
<path opacity="0.1" d="M19 88.23C17.4438 86.2508 16.027 84.1657 14.76 81.99L44.67 77.08L12.3 77.37C9.20381 70.6159 7.51819 63.3011 7.34624 55.8731C7.1743 48.4451 8.51965 41.0602 11.3 34.17L54.7 56.68L14.7 27.26C18.4281 20.7419 23.4625 15.0643 29.4876 10.5829C35.5126 6.10151 42.3984 2.91302 49.7134 1.2173C57.0283 -0.478424 64.6147 -0.644827 71.997 0.728529C79.3793 2.10189 86.3983 4.98539 92.614 9.19829C98.8298 13.4112 104.108 18.8627 108.119 25.211C112.129 31.5593 114.785 38.6676 115.919 46.0903C117.054 53.513 116.643 61.0901 114.713 68.3466C112.782 75.6031 109.373 82.3825 104.7 88.26C107.124 91.3402 109.21 94.6728 110.92 98.2L72.08 118.37L113.48 104.48C116.382 113.073 117.097 122.255 115.561 131.194C114.024 140.133 110.285 148.549 104.68 155.68C111.006 163.722 114.942 173.381 116.037 183.554C117.132 193.728 115.342 204.003 110.872 213.207C106.402 222.411 99.4324 230.171 90.7598 235.601C82.0872 241.03 72.0618 243.909 61.83 243.909C51.5981 243.909 41.5728 241.03 32.9002 235.601C24.2276 230.171 17.2579 222.411 12.7879 213.207C8.3179 204.003 6.52809 193.728 7.62309 183.554C8.7181 173.381 12.6537 163.722 18.98 155.68C11.4197 146.07 7.30933 134.197 7.30933 121.97C7.30933 109.743 11.4197 97.87 18.98 88.26L19 88.23Z" fill="#6C63FF"/>
<path opacity="0.1" d="M116.35 121.94C116.37 134.171 112.257 146.049 104.68 155.65C111.006 163.692 114.942 173.351 116.037 183.524C117.132 193.698 115.342 203.973 110.872 213.177C106.402 222.381 99.4323 230.141 90.7598 235.571C82.0872 241 72.0618 243.879 61.83 243.879C51.5981 243.879 41.5727 241 32.9002 235.571C24.2276 230.141 17.2579 222.381 12.7879 213.177C8.31788 203.973 6.52807 193.698 7.62308 183.524C8.71808 173.351 12.6537 163.692 18.98 155.65C11.67 146.37 116.35 115.82 116.35 121.94Z" fill="black"/>
</g>
<g opacity="0.1">
<path opacity="0.1" d="M171.44 335.39C176.14 335.39 179.95 330.407 179.95 324.26C179.95 318.113 176.14 313.13 171.44 313.13C166.74 313.13 162.93 318.113 162.93 324.26C162.93 330.407 166.74 335.39 171.44 335.39Z" fill="#3F3D56"/>
<path opacity="0.1" d="M178.17 276.63C179.353 274.561 179.964 272.214 179.94 269.83C179.94 263.68 176.14 258.69 171.44 258.69C166.74 258.69 162.93 263.69 162.93 269.83C162.909 272.214 163.523 274.562 164.71 276.63C163.543 278.708 162.93 281.052 162.93 283.435C162.93 285.818 163.543 288.162 164.71 290.24C163.543 292.318 162.93 294.662 162.93 297.045C162.93 299.428 163.543 301.772 164.71 303.85C163.523 305.918 162.909 308.265 162.93 310.65C162.93 316.8 166.74 321.79 171.44 321.79C176.14 321.79 179.94 316.79 179.94 310.65C179.964 308.266 179.353 305.919 178.17 303.85C179.328 301.769 179.935 299.427 179.935 297.045C179.935 294.663 179.328 292.321 178.17 290.24C179.328 288.159 179.935 285.817 179.935 283.435C179.935 281.053 179.328 278.711 178.17 276.63V276.63Z" fill="#3F3D56"/>
<path opacity="0.1" d="M171.44 267.35C176.14 267.35 179.95 262.367 179.95 256.22C179.95 250.073 176.14 245.09 171.44 245.09C166.74 245.09 162.93 250.073 162.93 256.22C162.93 262.367 166.74 267.35 171.44 267.35Z" fill="#3F3D56"/>
<path opacity="0.1" d="M171.44 253.74C176.14 253.74 179.95 248.757 179.95 242.61C179.95 236.463 176.14 231.48 171.44 231.48C166.74 231.48 162.93 236.463 162.93 242.61C162.93 248.757 166.74 253.74 171.44 253.74Z" fill="#3F3D56"/>
<path opacity="0.1" d="M139.6 149.48C138.436 148.003 137.376 146.446 136.43 144.82L158.78 141.15L134.61 141.33C132.291 136.284 131.026 130.817 130.892 125.265C130.758 119.713 131.758 114.192 133.83 109.04L166.26 125.87L136.35 103.87C139.147 99.0182 142.914 94.795 147.417 91.4641C151.919 88.1332 157.059 85.7661 162.517 84.5105C167.975 83.2549 173.633 83.1378 179.138 84.1665C184.643 85.1952 189.877 87.3476 194.513 90.4893C199.149 93.6311 203.088 97.6947 206.084 102.427C209.079 107.159 211.067 112.457 211.924 117.992C212.78 123.526 212.487 129.178 211.061 134.594C209.636 140.01 207.11 145.074 203.64 149.47C205.457 151.769 207.016 154.261 208.29 156.9L179.29 171.97L210.22 161.59C212.392 168.011 212.929 174.872 211.782 181.552C210.635 188.233 207.84 194.522 203.65 199.85C208.384 205.858 211.33 213.076 212.153 220.68C212.976 228.284 211.642 235.967 208.304 242.848C204.965 249.729 199.757 255.532 193.274 259.591C186.792 263.651 179.298 265.804 171.65 265.804C164.002 265.804 156.508 263.651 150.025 259.591C143.543 255.532 138.335 249.729 134.996 242.848C131.658 235.967 130.324 228.284 131.146 220.68C131.969 213.076 134.916 205.858 139.65 199.85C134 192.669 130.929 183.797 130.929 174.66C130.929 165.523 134 156.651 139.65 149.47L139.6 149.48Z" fill="#6C63FF"/>
<path opacity="0.1" d="M212.36 174.67C212.374 183.809 209.301 192.685 203.64 199.86C208.374 205.868 211.32 213.086 212.143 220.69C212.966 228.294 211.632 235.977 208.294 242.858C204.955 249.739 199.747 255.542 193.264 259.601C186.782 263.661 179.288 265.814 171.64 265.814C163.992 265.814 156.498 263.661 150.016 259.601C143.533 255.542 138.325 249.739 134.986 242.858C131.648 235.977 130.314 228.294 131.137 220.69C131.959 213.086 134.906 205.868 139.64 199.86C134.14 192.93 212.36 170.1 212.36 174.67Z" fill="black"/>
</g>
<path opacity="0.1" d="M548 501.99C850.652 501.99 1096 498.023 1096 493.13C1096 488.237 850.652 484.27 548 484.27C245.348 484.27 0 488.237 0 493.13C0 498.023 245.348 501.99 548 501.99Z" fill="#6C63FF"/>
<path opacity="0.1" d="M548 574.74C850.652 574.74 1096 570.773 1096 565.88C1096 560.987 850.652 557.02 548 557.02C245.348 557.02 0 560.987 0 565.88C0 570.773 245.348 574.74 548 574.74Z" fill="#6C63FF"/>
<path opacity="0.1" d="M548 350.16C850.652 350.16 1096 346.193 1096 341.3C1096 336.407 850.652 332.44 548 332.44C245.348 332.44 0 336.407 0 341.3C0 346.193 245.348 350.16 548 350.16Z" fill="#6C63FF"/>
<path opacity="0.1" d="M548 426.07C850.652 426.07 1096 422.103 1096 417.21C1096 412.317 850.652 408.35 548 408.35C245.348 408.35 0 412.317 0 417.21C0 422.103 245.348 426.07 548 426.07Z" fill="#6C63FF"/>
<path opacity="0.1" d="M808.79 110.37C805.22 109.696 801.53 110.1 798.19 111.53C796.185 112.423 794.015 112.885 791.82 112.885C789.625 112.885 787.455 112.423 785.45 111.53C783.078 110.489 780.508 109.976 777.918 110.026C775.328 110.076 772.78 110.688 770.45 111.82C769.123 112.525 767.643 112.896 766.14 112.9C760.06 112.9 755.01 106.78 753.96 98.71C755.157 97.8181 756.174 96.7088 756.96 95.44C760.52 89.7 766.03 86.01 772.23 86.01C778.43 86.01 783.87 89.65 787.43 95.33C788.49 97.0461 789.977 98.4584 791.745 99.4293C793.513 100.4 795.503 100.897 797.52 100.87H797.68C802.57 100.82 806.76 104.7 808.79 110.37Z" fill="#6C63FF"/>
<path opacity="0.1" d="M827.3 85.02L817.48 91.24L823.48 80.4C821.79 79.055 819.7 78.3124 817.54 78.29H817.38C816.71 78.2991 816.041 78.2489 815.38 78.14L812 80.25L813.43 77.65C811.067 76.8321 809.025 75.2843 807.6 73.23L801.6 77.01L805.36 70.17C801.88 65.99 797.18 63.43 792.02 63.43C785.82 63.43 780.31 67.11 776.74 72.85C775.688 74.5663 774.2 75.9736 772.428 76.9291C770.656 77.8845 768.662 78.354 766.65 78.29H766.32C759.48 78.29 753.94 86.04 753.94 95.6C753.94 105.16 759.48 112.92 766.32 112.92C767.822 112.91 769.3 112.54 770.63 111.84C772.959 110.705 775.507 110.09 778.097 110.039C780.687 109.987 783.258 110.499 785.63 111.54C787.633 112.44 789.804 112.905 792 112.905C794.196 112.905 796.367 112.44 798.37 111.54C800.723 110.522 803.268 110.022 805.831 110.072C808.395 110.122 810.918 110.721 813.23 111.83C814.545 112.518 816.006 112.882 817.49 112.89C824.33 112.89 829.87 105.13 829.87 95.57C829.911 91.8935 829.028 88.2656 827.3 85.02V85.02Z" fill="#6C63FF"/>
<path opacity="0.1" d="M391.26 104.96C388.758 104.487 386.172 104.769 383.83 105.77C382.428 106.396 380.91 106.72 379.375 106.72C377.84 106.72 376.322 106.396 374.92 105.77C373.261 105.041 371.463 104.683 369.652 104.719C367.84 104.755 366.058 105.186 364.43 105.98C363.503 106.463 362.475 106.72 361.43 106.73C357.18 106.73 353.64 102.45 352.9 96.8C353.748 96.1782 354.471 95.4011 355.03 94.51C357.52 90.51 361.38 87.91 365.72 87.91C370.06 87.91 373.87 90.46 376.36 94.43C377.104 95.6317 378.145 96.6207 379.384 97.3006C380.623 97.9804 382.017 98.3282 383.43 98.31H383.54C386.9 98.29 389.83 101.01 391.26 104.96Z" fill="#6C63FF"/>
<path opacity="0.1" d="M404.21 87.23L397.34 91.59L401.51 84C400.331 83.0564 398.87 82.5353 397.36 82.52H397.24C396.764 82.5285 396.289 82.4917 395.82 82.41L393.49 83.89L394.49 82.07C392.838 81.4955 391.411 80.4141 390.41 78.98L386.24 81.62L388.88 76.84C387.771 75.4084 386.358 74.2412 384.743 73.4232C383.127 72.6051 381.35 72.1565 379.54 72.11C375.2 72.11 371.34 74.69 368.85 78.71C368.112 79.9119 367.069 80.8974 365.828 81.5665C364.586 82.2356 363.19 82.5645 361.78 82.52H361.55C356.76 82.52 352.88 87.94 352.88 94.64C352.88 101.34 356.76 106.76 361.55 106.76C362.597 106.752 363.626 106.491 364.55 106C366.178 105.21 367.959 104.783 369.768 104.748C371.577 104.714 373.373 105.073 375.03 105.8C376.44 106.443 377.97 106.784 379.52 106.8C381.046 106.797 382.555 106.477 383.95 105.86C385.597 105.147 387.378 104.796 389.172 104.831C390.966 104.865 392.732 105.284 394.35 106.06C395.276 106.545 396.305 106.799 397.35 106.8C402.13 106.8 406.01 101.37 406.01 94.68C406.05 92.0843 405.431 89.5209 404.21 87.23V87.23Z" fill="#6C63FF"/>
<path opacity="0.1" d="M269.59 183.37C272.089 182.898 274.672 183.18 277.01 184.18C278.413 184.807 279.933 185.13 281.47 185.13C283.007 185.13 284.527 184.807 285.93 184.18C287.589 183.452 289.386 183.094 291.197 183.128C293.008 183.163 294.79 183.59 296.42 184.38C297.344 184.872 298.373 185.133 299.42 185.14C303.67 185.14 307.21 180.85 307.94 175.2C307.092 174.58 306.373 173.803 305.82 172.91C303.32 168.91 299.46 166.32 295.13 166.32C290.8 166.32 286.98 168.86 284.48 172.84C283.737 174.04 282.697 175.028 281.46 175.708C280.223 176.388 278.831 176.736 277.42 176.72H277.31C273.94 176.74 271 179.45 269.59 183.37Z" fill="#6C63FF"/>
<path opacity="0.1" d="M256.63 165.67L263.51 170.03L259.33 162.45C260.512 161.503 261.976 160.979 263.49 160.96H263.6C264.079 160.967 264.557 160.933 265.03 160.86L267.36 162.33L266.36 160.52C268.008 159.944 269.433 158.863 270.43 157.43L274.6 160.07L272 155.28C273.109 153.85 274.523 152.684 276.138 151.868C277.754 151.051 279.531 150.605 281.34 150.56C285.67 150.56 289.54 153.14 292.03 157.16C292.767 158.36 293.808 159.345 295.048 160.014C296.288 160.683 297.682 161.013 299.09 160.97H299.33C304.11 160.97 307.99 166.4 307.99 173.09C307.99 179.78 304.11 185.21 299.33 185.21C298.284 185.205 297.255 184.948 296.33 184.46C294.702 183.666 292.92 183.235 291.108 183.199C289.297 183.163 287.499 183.521 285.84 184.25C284.435 184.899 282.907 185.24 281.36 185.25C279.831 185.249 278.319 184.929 276.92 184.31C275.275 183.597 273.496 183.247 271.703 183.281C269.911 183.316 268.147 183.735 266.53 184.51C265.604 184.995 264.575 185.249 263.53 185.25C258.74 185.25 254.86 179.83 254.86 173.13C254.813 170.534 255.422 167.968 256.63 165.67V165.67Z" fill="#6C63FF"/>
<path d="M779.73 338.14C834.936 338.14 879.69 293.386 879.69 238.18C879.69 182.974 834.936 138.22 779.73 138.22C724.524 138.22 679.77 182.974 679.77 238.18C679.77 293.386 724.524 338.14 779.73 338.14Z" fill="#3F3D56"/>
<path d="M822.64 263.96C819.16 260.48 810.79 255.23 806.64 253.27C801.85 250.97 800.09 251.01 796.7 253.46C793.88 255.46 792.05 257.39 788.81 256.68C785.57 255.97 779.15 251.13 772.94 244.94C766.73 238.75 761.91 232.37 761.22 229.08C760.53 225.79 762.43 224 764.45 221.18C766.89 217.79 766.96 216.03 764.64 211.24C762.64 207.09 757.45 198.74 753.94 195.24C750.43 191.74 749.67 192.51 747.75 193.24C745.774 194.068 743.876 195.072 742.08 196.24C738.6 198.57 736.65 200.51 735.28 203.43C733.91 206.35 732.36 211.77 740.33 225.96C746.209 236.815 753.656 246.745 762.43 255.43V255.43C771.144 264.224 781.108 271.684 792 277.57C806.18 285.57 811.61 283.98 814.53 282.62C817.45 281.26 819.39 279.33 821.71 275.82C822.88 274.025 823.884 272.127 824.71 270.15C825.37 268.23 826.15 267.45 822.64 263.96Z" fill="#F6C90E"/>
<path opacity="0.1" d="M779.73 138.23C759.948 138.22 740.607 144.078 724.154 155.062C707.702 166.047 694.877 181.664 687.302 199.939C679.727 218.213 677.742 238.324 681.599 257.727C685.456 277.13 694.981 294.952 708.969 308.941C722.958 322.929 740.78 332.454 760.183 336.311C779.586 340.168 799.697 338.183 817.971 330.608C836.246 323.033 851.863 310.208 862.848 293.756C873.832 277.303 879.69 257.962 879.68 238.18C879.667 211.676 869.132 186.261 850.391 167.519C831.649 148.778 806.234 138.243 779.73 138.23V138.23ZM779.73 324.85C762.588 324.85 745.832 319.767 731.579 310.243C717.326 300.72 706.217 287.184 699.657 271.347C693.098 255.51 691.381 238.084 694.725 221.272C698.07 204.459 706.324 189.016 718.445 176.895C730.566 164.774 746.009 156.52 762.822 153.175C779.634 149.831 797.06 151.548 812.897 158.107C828.734 164.667 842.27 175.776 851.793 190.029C861.317 204.282 866.4 221.038 866.4 238.18C866.4 249.562 864.158 260.832 859.803 271.347C855.447 281.862 849.063 291.417 841.015 299.465C832.967 307.513 823.412 313.897 812.897 318.253C802.382 322.608 791.112 324.85 779.73 324.85Z" fill="#303841"/>
<path d="M550.08 489.97C605.286 489.97 650.04 445.216 650.04 390.01C650.04 334.804 605.286 290.05 550.08 290.05C494.874 290.05 450.12 334.804 450.12 390.01C450.12 445.216 494.874 489.97 550.08 489.97Z" fill="#3F3D56"/>
<path d="M606.93 359.81L577 390.26C576.947 390.31 576.906 390.371 576.877 390.438C576.848 390.505 576.834 390.577 576.834 390.65C576.834 390.723 576.848 390.795 576.877 390.862C576.906 390.929 576.947 390.99 577 391.04L598 413.37C598.502 413.876 598.844 414.519 598.982 415.219C599.12 415.919 599.049 416.644 598.776 417.303C598.504 417.962 598.043 418.526 597.451 418.924C596.859 419.322 596.163 419.536 595.45 419.54C594.49 419.538 593.57 419.157 592.89 418.48L572 396.23C571.893 396.125 571.75 396.066 571.6 396.066C571.45 396.066 571.307 396.125 571.2 396.23L566.11 401.37C564.026 403.501 561.537 405.194 558.789 406.35C556.042 407.506 553.091 408.101 550.11 408.1C547.073 408.086 544.069 407.467 541.274 406.279C538.478 405.09 535.948 403.357 533.83 401.18L528.94 396.18C528.833 396.075 528.69 396.016 528.54 396.016C528.39 396.016 528.247 396.075 528.14 396.18L507.3 418.38C506.965 418.716 506.566 418.982 506.128 419.164C505.69 419.346 505.22 419.44 504.745 419.44C504.27 419.44 503.8 419.346 503.362 419.164C502.924 418.982 502.525 418.716 502.19 418.38C501.853 418.045 501.585 417.647 501.403 417.209C501.22 416.77 501.126 416.3 501.126 415.825C501.126 415.35 501.22 414.88 501.403 414.441C501.585 414.003 501.853 413.605 502.19 413.27L523.11 390.99C523.203 390.881 523.254 390.743 523.254 390.6C523.254 390.457 523.203 390.319 523.11 390.21L493.18 359.76C493.103 359.683 493.005 359.63 492.898 359.609C492.791 359.587 492.68 359.598 492.579 359.64C492.478 359.682 492.392 359.752 492.332 359.843C492.272 359.934 492.24 360.041 492.24 360.15V421.08C492.248 423.435 493.187 425.692 494.853 427.357C496.518 429.023 498.775 429.962 501.13 429.97H599C601.355 429.962 603.612 429.023 605.277 427.357C606.943 425.692 607.882 423.435 607.89 421.08V360.2C607.895 360.087 607.865 359.974 607.803 359.879C607.742 359.783 607.653 359.709 607.548 359.666C607.442 359.624 607.327 359.615 607.216 359.64C607.105 359.666 607.006 359.725 606.93 359.81V359.81Z" fill="#F6C90E"/>
<path d="M550.08 400.87C552.109 400.89 554.121 400.502 555.997 399.729C557.873 398.956 559.574 397.814 561 396.37L604.59 352C603.043 350.718 601.099 350.012 599.09 350H501.15C499.14 350.007 497.195 350.714 495.65 352L539.25 396.37C540.663 397.805 542.35 398.943 544.21 399.716C546.07 400.489 548.066 400.881 550.08 400.87V400.87Z" fill="#F6C90E"/>
<path opacity="0.1" d="M548.82 290.06C529.038 290.05 509.697 295.908 493.244 306.892C476.792 317.877 463.967 333.494 456.392 351.769C448.817 370.043 446.832 390.154 450.689 409.557C454.546 428.96 464.071 446.782 478.059 460.771C492.048 474.759 509.871 484.284 529.273 488.141C548.676 491.998 568.787 490.013 587.061 482.438C605.336 474.863 620.953 462.038 631.938 445.586C642.922 429.133 648.78 409.792 648.77 390.01C648.757 363.506 638.222 338.091 619.481 319.349C600.739 300.608 575.324 290.073 548.82 290.06ZM548.82 476.68C531.678 476.68 514.922 471.597 500.669 462.074C486.416 452.55 475.307 439.014 468.747 423.177C462.188 407.34 460.471 389.914 463.815 373.102C467.16 356.289 475.414 340.846 487.535 328.725C499.656 316.604 515.099 308.35 531.912 305.005C548.724 301.661 566.15 303.378 581.987 309.937C597.824 316.497 611.36 327.606 620.883 341.859C630.407 356.112 635.49 372.868 635.49 390.01C635.49 412.996 626.359 435.041 610.105 451.295C593.851 467.549 571.806 476.68 548.82 476.68Z" fill="#303841"/>
<path d="M312.85 415.32C368.056 415.32 412.81 370.566 412.81 315.36C412.81 260.154 368.056 215.4 312.85 215.4C257.644 215.4 212.89 260.154 212.89 315.36C212.89 370.566 257.644 415.32 312.85 415.32Z" fill="#3F3D56"/>
<path d="M312.85 267.53L273 359.47L276.72 363.19L312.86 347.25L349 363.19L352.72 359.47L312.85 267.53Z" fill="#F6C90E"/>
<path opacity="0.1" d="M312.85 215.37C293.07 215.36 273.731 221.217 257.279 232.199C240.828 243.181 228.003 258.795 220.426 277.067C212.85 295.339 210.863 315.447 214.715 334.848C218.568 354.25 228.088 372.073 242.072 386.063C256.055 400.053 273.873 409.582 293.273 413.445C312.672 417.307 332.781 415.33 351.057 407.763C369.332 400.195 384.953 387.378 395.943 370.932C406.934 354.486 412.8 335.15 412.8 315.37C412.8 288.857 402.271 263.429 383.528 244.677C364.786 225.925 339.363 215.383 312.85 215.37V215.37ZM312.85 401.99C295.706 401.99 278.947 396.906 264.694 387.38C250.44 377.854 239.331 364.315 232.773 348.476C226.214 332.636 224.501 315.207 227.849 298.393C231.197 281.579 239.457 266.136 251.583 254.017C263.709 241.898 279.157 233.648 295.972 230.309C312.788 226.971 330.216 228.694 346.052 235.262C361.888 241.829 375.42 252.946 384.938 267.205C394.455 281.465 399.53 298.226 399.52 315.37C399.517 338.355 390.385 360.397 374.131 376.649C357.878 392.9 335.835 402.03 312.85 402.03V401.99Z" fill="#303841"/>
<path d="M788.93 441.25C788.023 439.037 787.093 436.83 786.14 434.63C785.355 432.483 784.201 430.49 782.73 428.74C782.171 428.11 781.491 427.6 780.73 427.24C779.893 426.931 779.012 426.756 778.12 426.72C776.76 426.549 775.387 426.512 774.02 426.61C773.49 426.45 772.89 426.24 772.3 426C775.259 425.223 777.89 423.515 779.805 421.13C781.721 418.745 782.82 415.807 782.94 412.75C782.94 412.55 782.94 412.34 782.94 412.14C782.948 410.269 782.587 408.414 781.878 406.682C781.169 404.95 780.126 403.375 778.809 402.046C777.491 400.717 775.925 399.661 774.199 398.938C772.473 398.214 770.621 397.838 768.75 397.83C766.116 397.825 763.534 398.563 761.3 399.96C758.351 399.291 755.261 399.642 752.537 400.955C749.813 402.268 747.614 404.466 746.3 407.19C744.644 408.775 743.335 410.686 742.457 412.804C741.579 414.921 741.151 417.198 741.2 419.49C741.2 419.7 741.2 419.92 741.2 420.12C741.46 427.89 746.48 434.12 752.82 434.75C752.142 435.055 751.52 435.47 750.98 435.98C749.04 437.85 748.72 440.82 748.51 443.52L748.36 445.52L745 446.72C744.893 446.758 744.799 446.825 744.727 446.913C744.656 447.001 744.61 447.107 744.594 447.219C744.579 447.332 744.594 447.446 744.639 447.551C744.685 447.655 744.757 447.744 744.85 447.81L748.06 450.1C748.06 450.29 748.06 450.48 748.06 450.67C748.06 450.86 748.06 451.1 748.12 451.32C747.572 451.803 747.147 452.41 746.88 453.09C746.567 454.14 746.469 455.242 746.59 456.33L746.71 459.12C746.694 461.22 746.981 463.311 747.56 465.33C747.98 466.57 749.8 469.56 751.11 469.58C749.9 475.08 749.58 486.68 749.58 486.68C749.43 486.83 749.85 486.97 750.58 487.09C751.3 492.61 753.65 508.09 757.82 514.9C758.476 517.12 759.001 519.378 759.39 521.66C759.39 521.66 760.58 536.37 762.15 540.74C763.49 544.46 764.55 553.64 764.84 556.3C764.568 556.37 764.321 556.513 764.125 556.714C763.929 556.915 763.793 557.166 763.73 557.44C762.94 559.82 757.82 563.44 757.82 563.44C756.251 564.224 754.769 565.173 753.4 566.27C751.79 567.72 751.85 569.03 759 568.21C772.8 566.62 775.16 562.21 775.16 562.21C775.16 562.21 774.94 561.47 774.61 560.51C774.189 559.016 773.58 557.582 772.8 556.24C772.6 556.05 772.4 556.37 772.16 556.87C771.119 550.489 770.803 544.012 771.22 537.56C771.22 537.56 771.61 530.8 769.64 526.03C769.202 523.532 769.202 520.978 769.64 518.48C770.43 515.3 766.49 499.79 766.49 499.79L764.23 488.37C764.538 488.76 764.753 489.215 764.86 489.7L764.92 489.93L764.98 490.26C765.003 490.377 765.058 490.484 765.14 490.57C766.68 496.97 770.9 514.7 770.9 517.3C770.9 520.48 774.84 528.43 774.84 528.43C774.84 528.43 776.41 541.55 779.17 546.71C781.27 550.64 781.32 556.4 781.22 558.94C781.22 558.94 780.75 562.21 779.96 563C779.332 563.781 778.829 564.655 778.47 565.59L778.38 565.78C778.38 565.78 777.2 568.17 777.99 568.57C780.995 569.749 784.247 570.158 787.45 569.76C787.45 569.76 789.03 567.76 789.03 566.98C788.997 566.504 788.937 566.03 788.85 565.56C788.56 563.68 788.02 560.72 788.01 560.69C788.34 559.41 787.01 555.85 787.01 555.85L786.61 544.72C787.342 537.184 786.4 529.579 783.85 522.45C783.85 522.45 781.85 515.3 782.28 513.31C782.71 511.32 781.49 490.25 781.49 490.25L781.37 489.95C781.263 488.46 781.304 486.962 781.49 485.48C781.88 480.71 780.31 470.77 779.91 470.38C779.584 469.312 779.396 468.206 779.35 467.09C779.44 466.26 779.71 463.83 780.08 460.81C783.968 460.677 787.847 460.343 791.7 459.81C792.072 459.81 792.43 459.667 792.7 459.41C792.858 459.17 792.938 458.887 792.93 458.6C793.39 452.61 791.2 446.79 788.93 441.25ZM781 453.86C781.41 451.01 781.85 448.25 782.29 446.2L782.35 446.38C783.107 448.441 783.742 450.544 784.25 452.68C783.2 453.16 782.113 453.555 781 453.86Z" fill="url(#paint0_linear)"/>
<path d="M750.37 486.05C750.37 486.05 752.73 507.28 757.84 515.53C758.497 517.723 759.021 519.954 759.41 522.21C759.41 522.21 760.59 536.75 762.16 541.07C763.73 545.39 764.91 557.19 764.91 557.19C764.91 557.19 770.41 563.47 772.38 558.37C771.143 551.632 770.746 544.766 771.2 537.93C771.2 537.93 771.59 531.25 769.63 526.53C769.192 524.063 769.192 521.537 769.63 519.07C770.41 515.92 766.48 500.6 766.48 500.6L763.34 485.27L750.37 486.05Z" fill="#BE6F72"/>
<path d="M775.13 562.3C775.13 562.3 772.77 566.62 759.02 568.19C751.88 569 751.83 567.71 753.44 566.27C754.805 565.185 756.279 564.247 757.84 563.47C757.84 563.47 762.95 559.94 763.73 557.58C764.51 555.22 767.27 557.19 767.27 557.19C771.2 563.08 771.99 555.61 772.77 556.4C773.553 557.719 774.161 559.134 774.58 560.61C774.91 561.56 775.13 562.3 775.13 562.3Z" fill="#303841"/>
<path opacity="0.1" d="M775.13 562.3C775.13 562.3 772.77 566.62 759.02 568.19C751.88 569 751.83 567.71 753.44 566.27C754.56 566.98 756.82 567.27 761.37 565.44C767.92 562.76 772.67 561.21 774.58 560.61C774.91 561.56 775.13 562.3 775.13 562.3Z" fill="black"/>
<path opacity="0.1" d="M771.2 537.93C771.2 537.93 771.59 531.25 769.63 526.53C769.192 524.063 769.192 521.537 769.63 519.07C770.41 515.92 766.48 500.6 766.48 500.6L763.34 485.27L760.62 485.43L763.73 500.6C763.73 500.6 767.66 515.92 766.88 519.07C766.442 521.537 766.442 524.063 766.88 526.53C768.88 531.25 768.45 537.93 768.45 537.93C767.996 544.766 768.393 551.632 769.63 558.37C769.417 559.01 769.021 559.573 768.49 559.99C769.95 560.65 771.49 560.62 772.38 558.37C771.143 551.632 770.746 544.766 771.2 537.93V537.93Z" fill="black"/>
<path d="M768.64 399.79C766.018 399.785 763.447 400.516 761.22 401.9C758.28 401.221 755.196 401.558 752.472 402.857C749.748 404.155 747.544 406.338 746.22 409.05C744.571 410.61 743.266 412.498 742.389 414.592C741.513 416.686 741.084 418.94 741.13 421.21C741.13 429.57 746.76 436.34 753.7 436.34C758.7 436.34 763.08 432.78 765.09 427.63C766.245 427.936 767.435 428.091 768.63 428.09C772.383 428.09 775.982 426.599 778.636 423.946C781.289 421.292 782.78 417.693 782.78 413.94C782.78 410.187 781.289 406.588 778.636 403.934C775.982 401.281 772.383 399.79 768.63 399.79H768.64Z" fill="#3F3D56"/>
<path d="M780.24 488.02L781.42 491.16C781.42 491.16 782.6 511.99 782.2 513.96C781.8 515.93 783.78 522.96 783.78 522.96C786.321 529.998 787.261 537.513 786.53 544.96L786.92 555.96C786.92 555.96 788.49 560.28 787.71 561.07C786.93 561.86 781 560.37 781 560.37C781 560.37 781.79 552.12 779 547.01C776.21 541.9 774.68 528.93 774.68 528.93C774.68 528.93 770.75 521.07 770.75 517.93C770.75 514.79 764.46 489.24 764.46 489.24L780.24 488.02Z" fill="#BE6F72"/>
<path d="M749.58 487.63C749.58 487.63 749.98 473.48 751.58 469.16C752.394 467.141 752.981 465.038 753.33 462.89C753.33 462.89 777.12 467.19 779.09 465.62C779.09 465.62 779.48 471.12 779.88 471.51C780.28 471.9 781.88 481.73 781.45 486.45C781.02 491.17 781.45 491.16 781.45 491.16C781.45 491.16 765.33 493.52 764.94 491.16C764.55 488.8 763.37 488.81 763.37 488.81C763.37 488.81 748.8 488.37 749.58 487.63Z" fill="#3F3D56"/>
<g opacity="0.1">
<path opacity="0.1" d="M762.55 487.63C762.55 487.63 752.61 487.36 749.61 486.82C749.61 487.33 749.61 487.63 749.61 487.63C748.83 488.41 763.37 488.81 763.37 488.81C763.568 488.828 763.756 488.905 763.91 489.03C763.38 487.63 762.55 487.63 762.55 487.63Z" fill="black"/>
<path opacity="0.1" d="M779.85 471.51C779.45 471.12 779.06 465.62 779.06 465.62C778.856 465.747 778.628 465.828 778.39 465.86C778.53 467.52 778.8 470.07 779.06 470.33C779.32 470.59 781.06 480.55 780.63 485.27C780.2 489.99 780.63 489.98 780.63 489.98C780.63 489.98 767.88 491.85 764.79 490.6C764.79 490.77 764.88 490.96 764.91 491.16C765.3 493.52 781.42 491.16 781.42 491.16C781.42 491.16 781.02 491.16 781.42 486.45C781.82 481.74 780.24 471.91 779.85 471.51Z" fill="black"/>
</g>
<path d="M766.9 424.55C767.239 425.307 767.753 425.972 768.4 426.49C768.817 426.8 769.299 427.008 769.81 427.1C768.93 427.61 767.97 427.99 767.09 428.5C765.706 429.43 764.371 430.432 763.09 431.5C761.78 432.553 760.177 433.175 758.5 433.28C759.089 432.487 759.458 431.552 759.57 430.571C759.682 429.59 759.534 428.596 759.14 427.69C758.78 427.096 758.542 426.437 758.44 425.75C758.44 424.62 759.44 423.75 760.37 423.15C761.12 422.64 761.89 422.15 762.67 421.66C763.28 421.28 764.2 420.48 764.97 420.51C765.74 420.54 765.83 421.22 765.97 421.92C766.168 422.832 766.481 423.716 766.9 424.55V424.55Z" fill="#BE6F72"/>
<path opacity="0.1" d="M766.9 424.55C767.239 425.307 767.753 425.972 768.4 426.49C768.817 426.8 769.299 427.008 769.81 427.1C768.93 427.61 767.97 427.99 767.09 428.5C765.706 429.43 764.371 430.432 763.09 431.5C761.78 432.553 760.177 433.175 758.5 433.28C759.089 432.487 759.458 431.552 759.57 430.571C759.682 429.59 759.534 428.596 759.14 427.69C758.78 427.096 758.542 426.437 758.44 425.75C758.44 424.62 759.44 423.75 760.37 423.15C761.12 422.64 761.89 422.15 762.67 421.66C763.28 421.28 764.2 420.48 764.97 420.51C765.74 420.54 765.83 421.22 765.97 421.92C766.168 422.832 766.481 423.716 766.9 424.55V424.55Z" fill="black"/>
<path d="M776.11 447.74C781.103 447.74 785.15 443.693 785.15 438.7C785.15 433.707 781.103 429.66 776.11 429.66C771.117 429.66 767.07 433.707 767.07 438.7C767.07 443.693 771.117 447.74 776.11 447.74Z" fill="#BE6F72"/>
<path d="M788.88 567.01C788.88 567.8 787.31 569.76 787.31 569.76C784.117 570.152 780.878 569.747 777.88 568.58C777.09 568.19 778.27 565.83 778.27 565.83L778.36 565.64C778.72 564.714 779.223 563.851 779.85 563.08C780.63 562.3 781.1 559.08 781.1 559.08C783.54 555.08 787.87 560.81 787.87 560.81C787.87 560.81 788.42 563.81 788.71 565.63C788.81 566.28 788.88 566.81 788.88 567.01Z" fill="#303841"/>
<path opacity="0.1" d="M788.88 567.01C788.88 567.8 787.31 569.76 787.31 569.76C784.117 570.152 780.878 569.747 777.88 568.58C777.09 568.19 778.27 565.83 778.27 565.83L778.36 565.64C781.038 566.884 783.969 567.486 786.92 567.4L788.71 565.61C788.81 566.28 788.88 566.81 788.88 567.01Z" fill="black"/>
<path d="M758.03 428.67C762.912 428.67 766.87 424.712 766.87 419.83C766.87 414.948 762.912 410.99 758.03 410.99C753.148 410.99 749.19 414.948 749.19 419.83C749.19 424.712 753.148 428.67 758.03 428.67Z" fill="#BE6F72"/>
<path d="M750.9 437.51C748.96 439.36 748.64 442.29 748.44 444.96L748.14 448.87C748.032 449.923 748.008 450.983 748.07 452.04C748.07 452.69 748.23 453.35 748.29 454.04C748.35 454.73 748.37 455.6 748.38 456.39V462.17C748.285 463.363 748.506 464.56 749.02 465.64C749.294 466.163 749.755 466.563 750.31 466.763C750.865 466.963 751.475 466.948 752.02 466.72C752.641 466.241 753.079 465.563 753.26 464.8C754.235 462.455 754.907 459.995 755.26 457.48C755.34 456.61 755.35 455.74 755.43 454.87C755.51 454 755.66 453.09 755.79 452.21C756.35 448.53 756.6 444.81 756.85 441.1C756.92 440 757.91 435.67 756.47 435.19C755.77 434.96 754.32 435.68 753.65 435.92C752.636 436.259 751.7 436.8 750.9 437.51V437.51Z" fill="#BE6F72"/>
<path opacity="0.1" d="M750.9 437.51C748.96 439.36 748.64 442.29 748.44 444.96L748.14 448.87C748.032 449.923 748.008 450.983 748.07 452.04C748.07 452.69 748.23 453.35 748.29 454.04C748.35 454.73 748.37 455.6 748.38 456.39V462.17C748.285 463.363 748.506 464.56 749.02 465.64C749.294 466.163 749.755 466.563 750.31 466.763C750.865 466.963 751.475 466.948 752.02 466.72C752.641 466.241 753.079 465.563 753.26 464.8C754.235 462.455 754.907 459.995 755.26 457.48C755.34 456.61 755.35 455.74 755.43 454.87C755.51 454 755.66 453.09 755.79 452.21C756.35 448.53 756.6 444.81 756.85 441.1C756.92 440 757.91 435.67 756.47 435.19C755.77 434.96 754.32 435.68 753.65 435.92C752.636 436.259 751.7 436.8 750.9 437.51V437.51Z" fill="black"/>
<path d="M769.23 425.53C769.23 425.53 762.55 430.64 758.62 431.82C758.62 431.82 756.29 434.48 755.89 435.12C755.49 435.76 754.69 442.82 753.89 444.4C753.09 445.98 751.14 449.51 753.89 453.04C753.89 453.04 754.67 456.58 754.28 457.76C753.89 458.94 752.46 463.26 753.76 463.46C755.06 463.66 759 466.4 762.53 465.62C766.06 464.84 779.24 468.62 779.24 468.62C779.24 468.62 781.42 448.37 783 444.79L779.46 443.61C779.46 443.61 769.64 437.72 775.53 428.68C775.52 428.68 770 427.5 769.23 425.53Z" fill="#F6C90E"/>
<path d="M744.84 449.2L752.96 454.95C753.063 455.026 753.187 455.066 753.315 455.066C753.443 455.066 753.567 455.026 753.67 454.95L755.87 453.3C755.938 453.242 755.992 453.17 756.029 453.089C756.066 453.007 756.086 452.919 756.086 452.83C756.086 452.741 756.066 452.653 756.029 452.571C755.992 452.49 755.938 452.418 755.87 452.36L749.62 446.81C749.539 446.736 749.439 446.686 749.332 446.665C749.224 446.644 749.113 446.652 749.01 446.69L745 448.13C744.895 448.166 744.801 448.231 744.73 448.317C744.658 448.402 744.612 448.506 744.596 448.616C744.579 448.727 744.593 448.839 744.636 448.942C744.679 449.045 744.75 449.134 744.84 449.2V449.2Z" fill="#3F3D56"/>
<path d="M747.57 466.52C746.996 464.528 746.71 462.463 746.72 460.39L746.6 457.62C746.479 456.545 746.578 455.456 746.89 454.42C747.198 453.709 747.66 453.076 748.243 452.566C748.826 452.056 749.515 451.681 750.26 451.47C751.753 451.056 753.313 450.943 754.85 451.14C755.057 451.141 755.261 451.196 755.44 451.3C755.597 451.445 755.708 451.633 755.76 451.84C755.987 452.283 756.121 452.769 756.152 453.266C756.183 453.764 756.111 454.262 755.94 454.73C755.708 455.111 755.394 455.436 755.02 455.68C753.93 456.46 752.66 456.98 751.63 457.83C751.421 457.972 751.26 458.174 751.17 458.41C751.12 458.617 751.12 458.833 751.17 459.04C751.298 459.59 751.472 460.129 751.69 460.65C751.778 460.912 751.933 461.146 752.14 461.33C752.33 461.49 752.58 461.55 752.78 461.7C753.21 462.05 754.11 462.51 754.06 463.06C753.91 465.06 752.71 467.3 752.24 469.28C751.34 473.15 748.15 468.21 747.57 466.52Z" fill="#BE6F72"/>
<g opacity="0.1">
<path opacity="0.1" d="M760.2 465.62H759.98C760.829 465.785 761.701 465.785 762.55 465.62H762.8C761.938 465.494 761.062 465.494 760.2 465.62Z" fill="black"/>
<path opacity="0.1" d="M780.83 444.2C779.42 447.37 777.34 464.54 776.97 467.95C778.35 468.31 779.26 468.57 779.26 468.57C779.26 468.57 781.42 448.37 783 444.79L780.83 444.2Z" fill="black"/>
</g>
<path d="M776.42 438.98C776.494 439.375 776.646 439.751 776.867 440.086C777.089 440.421 777.375 440.708 777.71 440.93C778.545 441.63 779.311 442.406 780 443.25C780.988 444.64 781.754 446.175 782.27 447.8C783.02 449.835 783.651 451.912 784.16 454.02C779.16 456.34 773.48 456.23 768.16 457.76C765.869 458.364 763.792 459.593 762.16 461.31C761.346 462.173 760.728 463.201 760.346 464.324C759.965 465.448 759.83 466.64 759.95 467.82C759.958 467.958 759.999 468.092 760.07 468.21C760.157 468.308 760.265 468.384 760.387 468.433C760.508 468.482 760.64 468.501 760.77 468.49C762.099 468.488 763.39 468.045 764.44 467.23C765.478 466.419 766.42 465.493 767.25 464.47C767.765 463.799 768.458 463.287 769.25 462.99C772.14 462.11 775.25 462.16 778.25 462.11C782.737 462.022 787.215 461.668 791.66 461.05C791.822 461.069 791.987 461.052 792.141 460.998C792.295 460.945 792.436 460.857 792.551 460.741C792.667 460.626 792.755 460.485 792.808 460.331C792.862 460.177 792.879 460.012 792.86 459.85C793.3 453.95 791.11 448.19 788.86 442.72C787.96 440.527 787.033 438.343 786.08 436.17C785.295 434.046 784.144 432.077 782.68 430.35C782.124 429.722 781.443 429.218 780.68 428.87C779.82 428.56 778.914 428.391 778 428.37C776.545 428.174 775.071 428.147 773.61 428.29C773.377 429.026 773.236 429.789 773.19 430.56C773.27 433.26 774.45 435.79 775.61 438.23C775.76 438.6 776.19 438.62 776.42 438.98Z" fill="#BE6F72"/>
<path opacity="0.1" d="M760.41 444.04C759.733 445.198 759.388 446.519 759.41 447.86C759.412 448.39 759.497 448.916 759.66 449.42C759.933 450.127 760.361 450.764 760.914 451.283C761.466 451.802 762.127 452.191 762.85 452.42" stroke="black" stroke-miterlimit="10"/>
<path d="M765.5 411.19C765.007 411.188 764.518 411.266 764.05 411.42C762.74 409.42 759.66 408.04 756.05 408.04C751.27 408.04 747.4 410.51 747.4 413.55C747.4 416.59 751.27 419.05 756.05 419.05C757.84 419.069 759.612 418.694 761.24 417.95C761.606 418.708 762.169 419.353 762.869 419.82C763.569 420.286 764.382 420.557 765.222 420.603C766.062 420.649 766.899 420.469 767.646 420.082C768.394 419.696 769.023 419.115 769.471 418.403C769.918 417.69 770.166 416.87 770.189 416.029C770.212 415.188 770.009 414.356 769.602 413.62C769.194 412.884 768.597 412.27 767.872 411.843C767.148 411.415 766.321 411.19 765.48 411.19H765.5Z" fill="#3F3D56"/>
<path opacity="0.1" d="M765.89 419.44C765.003 419.44 764.135 419.19 763.385 418.717C762.634 418.245 762.033 417.57 761.65 416.77C760.022 417.514 758.25 417.889 756.46 417.87C751.69 417.87 747.82 415.41 747.82 412.37C747.805 412.187 747.805 412.003 747.82 411.82C747.535 412.353 747.384 412.946 747.38 413.55C747.38 416.55 751.25 419.05 756.03 419.05C757.82 419.069 759.592 418.694 761.22 417.95C761.651 418.843 762.352 419.577 763.224 420.048C764.097 420.519 765.095 420.703 766.078 420.573C767.061 420.444 767.978 420.007 768.698 419.326C769.419 418.645 769.906 417.754 770.09 416.78C769.71 417.572 769.114 418.242 768.371 418.712C767.629 419.183 766.769 419.435 765.89 419.44V419.44Z" fill="black"/>
<path opacity="0.1" d="M746.23 411.37C747.554 408.658 749.758 406.475 752.482 405.177C755.206 403.878 758.29 403.541 761.23 404.22C763.287 402.95 765.636 402.228 768.052 402.124C770.468 402.021 772.87 402.538 775.029 403.628C777.188 404.717 779.031 406.342 780.383 408.347C781.735 410.352 782.55 412.67 782.75 415.08C782.75 414.69 782.75 414.3 782.75 413.9C782.745 411.385 782.068 408.917 780.791 406.75C779.514 404.584 777.682 402.797 775.484 401.574C773.286 400.351 770.802 399.737 768.288 399.794C765.773 399.851 763.32 400.578 761.18 401.9C758.24 401.221 755.156 401.558 752.432 402.857C749.708 404.155 747.504 406.338 746.18 409.05C744.531 410.61 743.226 412.498 742.349 414.592C741.473 416.686 741.044 418.94 741.09 421.21C741.09 421.61 741.09 422 741.09 422.39C741.286 418.183 743.133 414.224 746.23 411.37Z" fill="black"/>
<path d="M478 425.28C478.013 423.746 477.666 422.231 476.987 420.855C476.308 419.48 475.316 418.283 474.09 417.36C474.075 414.649 473.102 412.03 471.344 409.966C469.586 407.902 467.155 406.526 464.48 406.08C464.067 404.109 463.142 402.282 461.8 400.781C460.457 399.28 458.743 398.159 456.83 397.53V397.53C456.366 397.385 455.891 397.274 455.41 397.2H455.27H455.02H454.82H454.6H454.33H453.72C451.063 397.261 448.513 398.261 446.522 400.021C444.531 401.782 443.226 404.19 442.84 406.82C439.33 406.01 436.12 407.06 435.53 409.28C435.382 409.87 435.417 410.491 435.63 411.06C436.23 412.78 438.18 414.43 440.79 415.24L441.13 415.34L441.64 415.47H441.75C441.193 416.655 440.906 417.95 440.91 419.26C440.902 420.868 441.337 422.446 442.168 423.822C442.999 425.198 444.194 426.319 445.62 427.06L445.39 427.2C445.065 427.496 444.806 427.857 444.63 428.26C443.999 429.376 443.505 430.565 443.16 431.8C442.91 432.86 442.87 433.96 442.56 435.01C441.98 436.94 440.5 438.57 440.33 440.58C440.25 441.48 440.4 442.58 439.76 443.16C439.603 443.297 439.432 443.417 439.25 443.52C438.807 443.833 438.43 444.231 438.14 444.69C437.948 445.106 437.684 445.486 437.36 445.81C436.78 446.24 435.83 446.2 435.55 446.87C435.27 447.54 436 448.33 435.83 449.06C435.66 449.79 435.04 449.93 434.59 450.34C434.067 450.903 433.698 451.592 433.52 452.34C432.574 452.521 431.599 452.491 430.666 452.252C429.733 452.014 428.864 451.572 428.12 450.96C428.375 451.606 428.563 452.276 428.68 452.96C427.81 452.296 426.823 451.801 425.77 451.5C424.585 450.961 423.529 450.177 422.67 449.2L424.33 448.97L417 437.78L414.83 437.33L416.77 441.06C416.608 441.134 416.464 441.243 416.35 441.38C416.236 441.517 416.154 441.677 416.11 441.85C416.007 442.265 415.983 442.696 416.04 443.12C416.14 444.13 416.307 445.132 416.54 446.12L417.1 448.74C417.15 448.98 417.21 449.23 417.28 449.47C416.549 449.434 415.816 449.515 415.11 449.71C413.656 449.169 412.142 448.81 410.6 448.64C410.27 448.573 409.93 448.573 409.6 448.64C409.226 448.817 408.901 449.081 408.65 449.41C407.387 450.875 406.266 452.455 405.3 454.13C401.3 460.99 396.09 466.98 391.16 473.18C387.76 474.56 384.33 475.87 380.9 477.18L373.52 480C372.081 480.653 370.52 480.994 368.94 481C368.24 481 367.37 480.85 366.94 481.45C366.747 481.762 366.596 482.098 366.49 482.45L365.73 482.53C365.38 481.329 364.776 480.218 363.96 479.27C363.78 479.301 363.61 479.375 363.466 479.487C363.321 479.598 363.206 479.744 363.13 479.91C362.95 480.24 362.84 480.6 362.63 480.91C362.24 481.49 361.55 481.77 361.06 482.26C360.57 482.75 360.26 483.51 359.72 484.01C358.984 484.555 358.119 484.899 357.21 485.01C355.84 485.33 354.518 485.831 353.28 486.5C352.827 486.784 352.34 487.009 351.83 487.17C351.267 487.28 350.69 487.3 350.12 487.23L346.22 486.94C345.87 486.896 345.515 486.913 345.17 486.99C344.778 487.149 344.448 487.429 344.225 487.788C344.002 488.148 343.899 488.568 343.93 488.99C343.98 489.414 344.116 489.823 344.329 490.192C344.542 490.562 344.829 490.884 345.17 491.14C345.845 491.638 346.594 492.026 347.39 492.29C350.765 493.604 354.244 494.634 357.79 495.37V496.16C360.271 497.411 363.011 498.062 365.79 498.06C365.996 498.074 366.202 498.036 366.39 497.95C366.645 497.759 366.823 497.482 366.89 497.17C367.719 494.69 368.243 492.117 368.45 489.51V489.51C368.938 489.477 369.416 489.355 369.86 489.15C371.2 488.78 372.54 489.7 373.93 489.85C375.64 490.04 377.22 489.04 378.84 488.43L379.54 488.2C379.079 488.793 378.533 489.315 377.92 489.75C377.25 490.23 376.5 490.59 375.85 491.09C375.3 491.588 374.711 492.043 374.09 492.45C373.652 492.653 373.201 492.826 372.74 492.97C372.058 493.223 371.41 493.559 370.81 493.97C370.278 494.287 369.829 494.726 369.5 495.25C369.336 495.518 369.24 495.822 369.221 496.136C369.201 496.45 369.26 496.764 369.39 497.05C369.528 497.283 369.715 497.485 369.938 497.64C370.16 497.795 370.413 497.901 370.68 497.95C371.207 498.03 371.743 498.03 372.27 497.95C374.39 497.79 376.5 497.6 378.61 497.41C379.502 497.353 380.388 497.226 381.26 497.03C381.72 496.92 382.18 496.77 382.64 496.64C383.429 496.441 384.237 496.32 385.05 496.28C385.286 496.262 385.523 496.285 385.75 496.35C386.24 496.51 386.59 497.01 387.09 497.11C387.429 497.153 387.773 497.108 388.09 496.98C389.631 496.648 391.203 496.48 392.78 496.48C393.47 496.48 394.28 496.31 394.6 495.67C394.92 495.03 394.34 494 394.08 493.15C393.947 492.606 393.873 492.05 393.86 491.49C393.739 490.113 393.345 488.773 392.7 487.55C392.352 486.98 392.061 486.377 391.83 485.75C394.854 484.601 397.747 483.133 400.46 481.37C401.946 480.294 403.612 479.491 405.38 479C407.468 478.751 409.585 478.998 411.56 479.72C416.368 481.113 421.098 482.762 425.73 484.66C427.94 485.57 430.14 486.53 432.42 487.22C433.085 488.112 433.889 488.892 434.8 489.53C436.375 490.416 438.144 490.9 439.95 490.94C442.36 491.16 444.78 491.25 447.2 491.21C449.053 491.29 450.899 490.948 452.6 490.21C453.006 490.007 453.385 489.755 453.73 489.46C454.383 489.515 455.04 489.427 455.655 489.2C456.271 488.974 456.829 488.616 457.29 488.15C458.601 487.027 459.545 485.536 460 483.87C460.59 481.59 460.14 478.87 461.54 477.05C461.91 476.55 462.4 476.15 462.77 475.65C463.218 474.965 463.442 474.158 463.41 473.34C463.426 473.308 463.447 473.278 463.47 473.25C463.777 472.515 463.979 471.741 464.07 470.95C464.242 470.328 464.459 469.72 464.72 469.13C465.431 467.366 466.052 465.567 466.58 463.74C466.941 462.525 467.228 461.289 467.44 460.04C467.59 459.04 467.68 458.04 467.76 457.04C467.866 455.464 468.172 453.908 468.67 452.41C469.922 448.843 470.63 445.108 470.77 441.33V441.11C472.612 440.898 474.309 440.005 475.527 438.607C476.744 437.208 477.395 435.404 477.35 433.55C477.35 432.437 477.115 431.336 476.66 430.32C477.545 428.788 478.007 427.049 478 425.28ZM442.22 468.75C442.33 469.14 442.46 469.52 442.59 469.9C442 469.33 441.43 468.74 440.84 468.16C441.07 468.24 441.31 468.31 441.53 468.4C441.761 468.494 441.982 468.612 442.19 468.75H442.22ZM439.39 466.83C435.93 463.83 431.93 461.5 428.39 458.59C430.32 459.54 432.2 460.65 434.06 461.71C436.267 462.97 438.503 464.18 440.77 465.34C440.398 465.921 439.919 466.426 439.36 466.83H439.39ZM440.86 459.27L441.03 459.1C441.03 459.53 441.03 459.92 441.03 460.29L440.1 459.97C440.357 459.752 440.601 459.518 440.83 459.27H440.86ZM410.43 467.37C411.849 465.763 413.084 464.002 414.11 462.12C415.48 464.51 417.71 466.24 419.6 468.25C416.55 467.86 413.49 467.53 410.43 467.37Z" fill="url(#paint1_linear)"/>
<path d="M415.35 438.25L417.53 438.69L424.96 449.68L421.69 450.12L415.35 438.25Z" fill="#2F2E41"/>
<path d="M362.49 482.83C363.081 484.769 363.81 486.664 364.67 488.5C367.132 487.98 369.555 487.288 371.92 486.43C371.454 485.736 370.95 485.069 370.41 484.43C369.823 483.792 369.129 483.26 368.36 482.86C367.54 482.675 366.69 482.675 365.87 482.86C364.75 482.83 363.62 482.85 362.49 482.83Z" fill="#FBBEBE"/>
<path d="M368.37 485.76C367.779 485.495 367.251 485.106 366.823 484.62C366.395 484.133 366.077 483.56 365.89 482.94C365.509 481.694 364.864 480.545 364 479.57C363.818 479.595 363.645 479.666 363.498 479.776C363.351 479.886 363.235 480.032 363.16 480.2C362.98 480.52 362.87 480.88 362.67 481.2C362.27 481.77 361.57 482.05 361.07 482.53C360.57 483.01 360.27 483.76 359.73 484.25C358.988 484.797 358.116 485.142 357.2 485.25C355.808 485.564 354.464 486.058 353.2 486.72C352.737 486.997 352.244 487.218 351.73 487.38C351.16 487.465 350.58 487.465 350.01 487.38L346.07 487.1C345.739 487.046 345.401 487.046 345.07 487.1C344.668 487.245 344.326 487.521 344.099 487.884C343.873 488.247 343.774 488.675 343.82 489.1C343.867 489.522 344.002 489.929 344.218 490.294C344.433 490.66 344.724 490.975 345.07 491.22C345.754 491.711 346.51 492.096 347.31 492.36C350.74 493.652 354.273 494.655 357.87 495.36V496.14C360.375 497.37 363.129 498.009 365.92 498.01C366.125 498.022 366.33 497.988 366.52 497.91C366.775 497.719 366.953 497.442 367.02 497.13C367.968 494.368 368.523 491.486 368.67 488.57C368.734 487.829 368.677 487.082 368.5 486.36C368.28 485.65 369.02 485.95 368.34 485.67" fill="#2F2E41"/>
<path d="M443.93 470.91C432.25 471.61 420.71 468.19 409.01 467.83C407.558 467.734 406.099 467.825 404.67 468.1C403.182 468.504 401.74 469.063 400.37 469.77C394.1 472.69 387.61 475.11 381.13 477.52L373.68 480.29C372.231 480.945 370.66 481.285 369.07 481.29C368.36 481.29 367.49 481.14 367.07 481.73C365.86 483.53 366.43 486.16 367.23 488.18C367.49 488.83 367.93 489.54 368.63 489.61C369.121 489.577 369.602 489.455 370.05 489.25C371.4 488.89 372.75 489.8 374.15 489.95C375.87 490.13 377.47 489.15 379.1 488.55C381.8 487.55 384.74 487.55 387.58 487.11C392.33 486.32 396.74 484.11 400.86 481.6C402.358 480.532 404.034 479.74 405.81 479.26C407.914 479.012 410.046 479.255 412.04 479.97C416.886 481.337 421.656 482.96 426.33 484.83C428.76 485.888 431.251 486.799 433.79 487.56C439.332 489.01 445.191 488.66 450.52 486.56C452.39 485.82 454.42 484.56 454.52 482.5C454.59 481.35 453.69 480.34 453.1 479.35C452.72 478.72 452.33 478.09 451.92 477.48C449.92 474.58 447.48 470.7 443.93 470.91Z" fill="#2F2E41"/>
<path opacity="0.1" d="M443.93 470.91C432.25 471.61 420.71 468.19 409.01 467.83C407.558 467.734 406.099 467.825 404.67 468.1C403.182 468.504 401.74 469.063 400.37 469.77C394.1 472.69 387.61 475.11 381.13 477.52L373.68 480.29C372.231 480.945 370.66 481.285 369.07 481.29C368.36 481.29 367.49 481.14 367.07 481.73C365.86 483.53 366.43 486.16 367.23 488.18C367.49 488.83 367.93 489.54 368.63 489.61C369.121 489.577 369.602 489.455 370.05 489.25C371.4 488.89 372.75 489.8 374.15 489.95C375.87 490.13 377.47 489.15 379.1 488.55C381.8 487.55 384.74 487.55 387.58 487.11C392.33 486.32 396.74 484.11 400.86 481.6C402.358 480.532 404.034 479.74 405.81 479.26C407.914 479.012 410.046 479.255 412.04 479.97C416.886 481.337 421.656 482.96 426.33 484.83C428.76 485.888 431.251 486.799 433.79 487.56C439.332 489.01 445.191 488.66 450.52 486.56C452.39 485.82 454.42 484.56 454.52 482.5C454.59 481.35 453.69 480.34 453.1 479.35C452.72 478.72 452.33 478.09 451.92 477.48C449.92 474.58 447.48 470.7 443.93 470.91Z" fill="black"/>
<path d="M384.92 483.37C386.747 483.99 388.59 484.563 390.45 485.09C391.45 483.38 393.45 482.19 393.88 480.23C393.905 480.145 393.905 480.055 393.88 479.97C393.831 479.887 393.758 479.821 393.67 479.78C392.333 479.046 390.852 478.612 389.33 478.51C388.13 478.44 387.58 479.69 387.04 480.57C386.83 480.96 385.41 483.56 384.92 483.37Z" fill="#FBBEBE"/>
<path d="M387.48 482.15C386.933 482.058 386.412 481.852 385.949 481.548C385.486 481.243 385.091 480.845 384.79 480.38C384.54 479.93 384.26 479.32 383.74 479.38C383.22 479.44 383.05 479.98 382.94 480.45C382.594 482.222 382.088 483.959 381.43 485.64C380.77 487.33 379.651 488.802 378.2 489.89C377.52 490.36 376.77 490.71 376.1 491.21C375.545 491.701 374.954 492.149 374.33 492.55C373.889 492.748 373.434 492.915 372.97 493.05C372.287 493.307 371.636 493.643 371.03 494.05C370.491 494.36 370.034 494.795 369.7 495.32C369.535 495.582 369.439 495.882 369.421 496.192C369.404 496.502 369.465 496.811 369.6 497.09C369.74 497.32 369.927 497.518 370.15 497.669C370.372 497.821 370.625 497.924 370.89 497.97C371.424 498.05 371.966 498.05 372.5 497.97C374.63 497.82 376.76 497.63 378.89 497.44C379.788 497.382 380.68 497.258 381.56 497.07L382.95 496.69C383.744 496.48 384.559 496.359 385.38 496.33C385.619 496.308 385.86 496.332 386.09 496.4C386.58 496.56 386.93 497.05 387.44 497.15C387.779 497.183 388.121 497.138 388.44 497.02C389.994 496.687 391.58 496.523 393.17 496.53C393.87 496.53 394.69 496.35 395.01 495.73C395.41 494.95 394.75 494.08 394.48 493.24C394.351 492.706 394.277 492.159 394.26 491.61C394.141 490.25 393.742 488.929 393.09 487.73C392.55 486.73 391.81 485.63 392.19 484.57C392.379 484.233 392.501 483.863 392.55 483.48C392.4 481.76 388.46 482.37 387.48 482.15Z" fill="#2F2E41"/>
<path d="M426.42 452.17C424.347 451.262 422.686 449.615 421.76 447.55C421.57 447.11 421.41 446.64 421.22 446.2C420.61 444.71 419.658 443.384 418.44 442.33C418.312 442.194 418.157 442.085 417.985 442.011C417.813 441.937 417.627 441.9 417.44 441.9C417.254 441.956 417.087 442.061 416.955 442.203C416.823 442.345 416.732 442.52 416.69 442.71C416.578 443.117 416.551 443.542 416.61 443.96C416.712 444.943 416.879 445.919 417.11 446.88L417.68 449.46C417.756 449.855 417.873 450.24 418.03 450.61C418.274 451.042 418.596 451.426 418.98 451.74C419.5 452.22 420.03 452.68 420.56 453.14C420.866 453.407 421.202 453.638 421.56 453.83C422.119 454.097 422.716 454.272 423.33 454.35C425.716 454.661 427.993 455.538 429.97 456.91C429.97 456.91 429.97 455.18 429.97 454.99C429.945 454.487 429.771 454.004 429.47 453.6C428.554 452.933 427.519 452.447 426.42 452.17V452.17Z" fill="#FBBEBE"/>
<path opacity="0.1" d="M426.42 452.17C424.347 451.262 422.686 449.615 421.76 447.55C421.57 447.11 421.41 446.64 421.22 446.2C420.61 444.71 419.658 443.384 418.44 442.33C418.312 442.194 418.157 442.085 417.985 442.011C417.813 441.937 417.627 441.9 417.44 441.9C417.254 441.956 417.087 442.061 416.955 442.203C416.823 442.345 416.732 442.52 416.69 442.71C416.578 443.117 416.551 443.542 416.61 443.96C416.712 444.943 416.879 445.919 417.11 446.88L417.68 449.46C417.756 449.855 417.873 450.24 418.03 450.61C418.274 451.042 418.596 451.426 418.98 451.74C419.5 452.22 420.03 452.68 420.56 453.14C420.866 453.407 421.202 453.638 421.56 453.83C422.119 454.097 422.716 454.272 423.33 454.35C425.716 454.661 427.993 455.538 429.97 456.91C429.97 456.91 429.97 455.18 429.97 454.99C429.945 454.487 429.771 454.004 429.47 453.6C428.554 452.933 427.519 452.447 426.42 452.17V452.17Z" fill="black"/>
<path d="M450.2 432.43C451.769 432.43 453.04 431.15 453.04 429.57C453.04 427.99 451.769 426.71 450.2 426.71C448.632 426.71 447.36 427.99 447.36 429.57C447.36 431.15 448.632 432.43 450.2 432.43Z" fill="#2F2E41"/>
<path d="M448.44 427.85C447.68 427.668 446.879 427.782 446.2 428.17C445.872 428.462 445.61 428.82 445.43 429.22C444.794 430.314 444.297 431.483 443.95 432.7C443.7 433.7 443.66 434.83 443.34 435.86C442.76 437.76 441.27 439.37 441.1 441.35C441.02 442.24 441.17 443.28 440.52 443.88C440.361 444.018 440.19 444.141 440.01 444.25C439.56 444.55 439.178 444.942 438.89 445.4C438.694 445.808 438.427 446.177 438.1 446.49C437.52 446.92 436.56 446.88 436.28 447.49C436 448.1 436.73 448.93 436.56 449.65C436.39 450.37 435.76 450.51 435.31 450.91C434.78 451.47 434.407 452.16 434.23 452.91C433.28 453.093 432.301 453.067 431.361 452.834C430.422 452.601 429.545 452.166 428.79 451.56C429.45 453.564 429.738 455.672 429.64 457.78C429.69 458.117 429.671 458.461 429.585 458.791C429.499 459.121 429.348 459.43 429.14 459.7C431.396 459.868 433.63 460.256 435.81 460.86C436.754 461.175 437.776 461.175 438.72 460.86C439.226 460.589 439.679 460.23 440.06 459.8C441.26 458.58 442.52 457.25 442.81 455.56C442.882 454.605 442.898 453.647 442.86 452.69C442.974 451.503 443.219 450.333 443.59 449.2C444.223 446.849 444.648 444.446 444.86 442.02C444.99 440.52 446.29 439.32 446.97 438.02C448.25 435.49 449.57 432.86 449.66 430.02C449.7 429.1 449.38 427.95 448.44 427.85Z" fill="#2F2E41"/>
<path opacity="0.1" d="M448.44 427.85C447.68 427.668 446.879 427.782 446.2 428.17C445.872 428.462 445.61 428.82 445.43 429.22C444.794 430.314 444.297 431.483 443.95 432.7C443.7 433.7 443.66 434.83 443.34 435.86C442.76 437.76 441.27 439.37 441.1 441.35C441.02 442.24 441.17 443.28 440.52 443.88C440.361 444.018 440.19 444.141 440.01 444.25C439.56 444.55 439.178 444.942 438.89 445.4C438.694 445.808 438.427 446.177 438.1 446.49C437.52 446.92 436.56 446.88 436.28 447.49C436 448.1 436.73 448.93 436.56 449.65C436.39 450.37 435.76 450.51 435.31 450.91C434.78 451.47 434.407 452.16 434.23 452.91C433.28 453.093 432.301 453.067 431.361 452.834C430.422 452.601 429.545 452.166 428.79 451.56C429.45 453.564 429.738 455.672 429.64 457.78C429.69 458.117 429.671 458.461 429.585 458.791C429.499 459.121 429.348 459.43 429.14 459.7C431.396 459.868 433.63 460.256 435.81 460.86C436.754 461.175 437.776 461.175 438.72 460.86C439.226 460.589 439.679 460.23 440.06 459.8C441.26 458.58 442.52 457.25 442.81 455.56C442.882 454.605 442.898 453.647 442.86 452.69C442.974 451.503 443.219 450.333 443.59 449.2C444.223 446.849 444.648 444.446 444.86 442.02C444.99 440.52 446.29 439.32 446.97 438.02C448.25 435.49 449.57 432.86 449.66 430.02C449.7 429.1 449.38 427.95 448.44 427.85Z" fill="black"/>
<path d="M445.78 473.37C443.35 472.21 441.57 470.06 439.6 468.21C435.85 464.68 431.26 462.21 427.31 458.88C424.69 456.69 422.31 454.14 419.48 452.3C416.945 450.693 414.074 449.69 411.09 449.37C410.761 449.294 410.419 449.294 410.09 449.37C409.712 449.531 409.384 449.79 409.14 450.12C407.865 451.559 406.73 453.116 405.75 454.77C400.75 463.27 393.64 470.41 387.75 478.31C387.615 478.474 387.516 478.665 387.46 478.87C387.435 479.176 387.513 479.482 387.68 479.74L388.88 482.08C389.55 483.4 390.63 484.93 392.07 484.67C392.718 484.482 393.299 484.111 393.74 483.6L399.12 478.45L404.76 473.06C408.06 469.91 411.42 466.68 413.58 462.64C415.26 465.56 418.25 467.47 420.29 470.14C421.07 471.14 421.71 472.27 422.41 473.35C423.52 475.07 424.79 476.69 426.05 478.35L432.52 486.6C433.34 487.765 434.355 488.78 435.52 489.6C437.115 490.468 438.894 490.945 440.71 490.99C443.14 491.207 445.58 491.293 448.02 491.25C449.888 491.325 451.75 490.984 453.47 490.25C454.327 489.873 455.06 489.26 455.582 488.483C456.104 487.706 456.395 486.796 456.42 485.86C456.32 484.891 456.002 483.958 455.49 483.13C453.15 478.96 450.13 475.44 445.78 473.37Z" fill="#2F2E41"/>
<path d="M451.95 433.75C453.16 433.75 454.14 432.765 454.14 431.55C454.14 430.335 453.16 429.35 451.95 429.35C450.741 429.35 449.76 430.335 449.76 431.55C449.76 432.765 450.741 433.75 451.95 433.75Z" fill="#E8E8F0"/>
<path d="M451.47 429.9C451.959 430.882 452.045 432.016 451.71 433.06C451.365 434.086 450.891 435.063 450.3 435.97C449.792 436.904 449.178 437.776 448.47 438.57C451.85 438.73 455.12 437.41 458.09 435.81C460.49 434.52 462.88 432.93 464.16 430.52C463.778 430.611 463.381 430.621 462.995 430.548C462.609 430.476 462.243 430.323 461.92 430.1C461.275 429.656 460.699 429.121 460.21 428.51L458.52 426.61C458.137 426.192 457.801 425.732 457.52 425.24C457.149 424.566 456.992 423.795 457.07 423.03C456.396 423.733 455.645 424.357 454.83 424.89C453.62 425.68 452.29 426.25 451.07 427.03C450.65 427.31 449.69 427.75 449.94 428.31C450.19 428.87 451.13 429.3 451.47 429.9Z" fill="#FBBEBE"/>
<path opacity="0.1" d="M451.47 429.9C451.959 430.882 452.045 432.016 451.71 433.06C451.365 434.086 450.891 435.063 450.3 435.97C449.792 436.904 449.178 437.776 448.47 438.57C451.85 438.73 455.12 437.41 458.09 435.81C460.49 434.52 462.88 432.93 464.16 430.52C463.778 430.611 463.381 430.621 462.995 430.548C462.609 430.476 462.243 430.323 461.92 430.1C461.275 429.656 460.699 429.121 460.21 428.51L458.52 426.61C458.137 426.192 457.801 425.732 457.52 425.24C457.149 424.566 456.992 423.795 457.07 423.03C456.396 423.733 455.645 424.357 454.83 424.89C453.62 425.68 452.29 426.25 451.07 427.03C450.65 427.31 449.69 427.75 449.94 428.31C450.19 428.87 451.13 429.3 451.47 429.9Z" fill="black"/>
<path d="M451.51 430.23C451.168 430.712 450.984 431.289 450.984 431.88C450.984 432.471 451.168 433.048 451.51 433.53C451.61 433.65 451.97 434.4 452.12 434.41C452.194 434.404 452.265 434.383 452.33 434.349C452.396 434.314 452.453 434.267 452.5 434.21C453.269 433.408 453.984 432.556 454.64 431.66C455.31 430.766 456.273 430.136 457.36 429.88C458.707 429.829 460.031 430.242 461.11 431.05C461.612 431.279 462.053 431.621 462.4 432.05C462.641 432.491 462.785 432.979 462.82 433.48C463.147 436.498 463.274 439.535 463.2 442.57C463.257 444.762 463.114 446.954 462.77 449.12C462.55 450.23 462.23 451.32 462.08 452.45C461.963 453.445 461.916 454.448 461.94 455.45V459.63C461.913 460.397 461.967 461.164 462.1 461.92C462.3 462.83 462.73 463.68 463.02 464.57C463.319 465.592 463.523 466.64 463.63 467.7L464.2 472.02C464.38 473.38 464.52 474.87 463.69 476.02C463.32 476.51 462.83 476.91 462.45 477.4C461.04 479.24 461.45 481.87 460.9 484.12C460.437 485.767 459.481 487.233 458.16 488.32C457.689 488.786 457.122 489.143 456.498 489.366C455.874 489.589 455.209 489.672 454.55 489.61C452.79 489.28 451.74 487.45 451.26 485.72C450.78 483.99 450.61 482.11 449.57 480.65C448.616 479.545 447.487 478.603 446.23 477.86C444.958 477.106 444.023 475.893 443.62 474.47C443.51 473.84 443.62 473.19 443.51 472.55C443.416 471.745 443.108 470.979 442.617 470.334C442.126 469.688 441.471 469.186 440.72 468.88C439.82 468.53 438.72 468.4 438.2 467.58C439.487 466.774 440.426 465.514 440.83 464.05C441.228 462.596 441.443 461.097 441.47 459.59L441.77 454.59C441.91 452.34 441.97 450.12 442.96 448.1C443.4 447.2 443.96 446.35 444.41 445.46C445.02 444.209 445.538 442.916 445.96 441.59C446.68 439.53 447.4 437.47 448.04 435.39C448.29 434.38 448.673 433.408 449.18 432.5C449.72 431.56 450.5 430.43 451.51 430.23Z" fill="#E8E8F0"/>
<path d="M440.36 462.87H441.69L441.97 460.87C442.006 460.469 442.101 460.074 442.25 459.7C442.47 459.303 442.728 458.928 443.02 458.58C444.32 456.73 444.23 454.28 444.55 452.03C445.13 449.057 446.112 446.177 447.47 443.47L450.05 437.72C450.285 437.25 450.472 436.757 450.61 436.25C450.718 435.69 450.772 435.121 450.77 434.55C450.77 433.66 451.05 430.42 451.08 429.55C451.08 429.22 450.35 429.4 450.2 429.11C449.88 428.47 449.44 430.2 448.83 430.58C448.257 431.017 447.84 431.627 447.64 432.32C447.08 433.76 446.74 435.32 446.22 436.75C445.768 438.243 444.938 439.593 443.81 440.67C443.28 441.13 442.67 441.5 442.17 442C440.57 443.58 440.41 446.09 440.36 448.35C440.32 449.73 440.06 462.87 440.36 462.87Z" fill="#2F2E41"/>
<path d="M459.5 427.84C458.882 428.163 458.346 428.625 457.935 429.188C457.524 429.752 457.249 430.403 457.13 431.09C456.902 432.469 456.498 433.813 455.93 435.09C454.31 437.91 450.18 438.73 449.03 441.78C448.741 442.806 448.586 443.864 448.57 444.93C448.37 447.12 447.65 449.23 447.43 451.41C447.32 453.107 447.36 454.81 447.55 456.5L449 473.72C449.278 476.253 449.132 478.815 448.57 481.3C450.056 481.512 451.572 481.261 452.91 480.58C454.26 479.96 455.5 479.11 456.81 478.39C459.05 477.15 461.53 476.28 463.5 474.63C463.853 474.349 464.157 474.011 464.4 473.63C464.701 472.907 464.903 472.147 465 471.37C465.17 470.761 465.388 470.166 465.65 469.59C466.372 467.852 466.999 466.076 467.53 464.27C467.891 463.075 468.178 461.86 468.39 460.63C468.55 459.63 468.64 458.63 468.72 457.63C468.824 456.079 469.134 454.549 469.64 453.08C470.895 449.569 471.606 445.886 471.75 442.16C471.789 441.624 471.752 441.085 471.64 440.56C471.42 439.917 471.125 439.303 470.76 438.73C470.16 437.6 469.76 436.36 469.24 435.21C467.822 432.677 465.79 430.542 463.33 429C462.17 428.21 460.81 427.37 459.5 427.84Z" fill="#2F2E41"/>
<path d="M429.29 455.94C428.264 455.401 427.334 454.695 426.54 453.85C426.18 453.43 425.88 452.96 425.54 452.54C424.613 451.542 423.407 450.846 422.08 450.54C420.767 450.251 419.424 450.12 418.08 450.15C417.178 450.089 416.272 450.198 415.41 450.47C414.98 450.614 414.593 450.863 414.284 451.195C413.974 451.527 413.753 451.931 413.64 452.37C413.604 452.914 413.709 453.457 413.946 453.948C414.182 454.439 414.542 454.86 414.99 455.17C415.771 455.811 416.693 456.256 417.68 456.47C418.484 456.613 419.295 456.71 420.11 456.76C424.89 457.26 429.16 459.86 433.35 462.23C437.03 464.323 440.783 466.27 444.61 468.07C444.758 466.926 444.822 465.773 444.8 464.62C444.8 463.76 444.73 462.44 443.92 461.93C442.768 461.448 441.568 461.089 440.34 460.86C437.872 460.054 435.463 459.078 433.13 457.94C431.81 457.37 430.54 456.67 429.29 455.94Z" fill="#FBBEBE"/>
<path d="M450.2 428.92C454.905 428.92 458.72 425.083 458.72 420.35C458.72 415.617 454.905 411.78 450.2 411.78C445.495 411.78 441.68 415.617 441.68 420.35C441.68 425.083 445.495 428.92 450.2 428.92Z" fill="#FBBEBE"/>
<path d="M461.93 437.55C461.25 438.505 460.695 439.543 460.28 440.64C459.28 442.8 457.58 444.64 456.75 446.93C455.92 449.22 455.91 452.16 454.2 454.03C453.858 454.316 453.599 454.689 453.45 455.11C453.443 455.372 453.416 455.632 453.37 455.89C453.12 456.57 452.01 456.6 451.8 457.3C451.74 457.5 451.8 457.72 451.7 457.92C451.53 458.37 450.93 458.44 450.54 458.71C449.71 459.27 449.88 460.57 449.29 461.38C449.033 461.682 448.7 461.91 448.326 462.042C447.952 462.173 447.55 462.204 447.16 462.13C446.384 461.972 445.638 461.692 444.95 461.3C444.703 461.165 444.431 461.08 444.15 461.05C443.818 461.062 443.497 461.173 443.23 461.37C442.476 461.926 441.871 462.659 441.47 463.506C441.068 464.352 440.883 465.284 440.93 466.22C441.045 468.094 441.492 469.933 442.25 471.65C442.334 471.947 442.481 472.224 442.68 472.46C442.978 472.694 443.338 472.834 443.716 472.862C444.093 472.891 444.471 472.806 444.8 472.62C445.452 472.232 446.147 471.92 446.87 471.69C448.19 471.45 449.48 472.36 450.82 472.28C451.796 472.136 452.715 471.732 453.48 471.11C454.826 470.307 456.034 469.294 457.06 468.11C457.64 467.34 458.06 466.47 458.58 465.65C459.242 464.653 459.959 463.695 460.73 462.78L465.65 456.78C466.139 456.21 466.58 455.602 466.97 454.96C467.407 454.085 467.743 453.162 467.97 452.21C468.496 450.625 468.832 448.984 468.97 447.32C469 445.944 468.88 444.569 468.61 443.22C468.461 441.876 468.124 440.56 467.61 439.31C466.54 437.05 463.94 435.21 461.93 437.55Z" fill="#2F2E41"/>
<path d="M479.05 426.37C479.057 424.851 478.704 423.352 478.019 421.996C477.334 420.64 476.337 419.466 475.11 418.57C475.07 415.871 474.074 413.274 472.3 411.24C470.526 409.206 468.088 407.867 465.42 407.46C464.907 404.901 463.507 402.606 461.466 400.979C459.425 399.352 456.875 398.499 454.267 398.57C451.658 398.64 449.158 399.63 447.208 401.365C445.258 403.099 443.984 405.467 443.61 408.05C440.07 407.25 436.83 408.29 436.24 410.47C435.65 412.65 438.15 415.47 441.88 416.47C443.057 416.8 444.282 416.921 445.5 416.83C446.368 418.11 447.495 419.193 448.807 420.011C450.12 420.83 451.589 421.364 453.12 421.58C453.574 423.642 454.592 425.536 456.062 427.051C457.531 428.567 459.393 429.643 461.44 430.16C462.01 431.527 462.89 432.742 464.01 433.71C464.01 433.98 464.01 434.26 464.01 434.54C464.01 435.487 464.197 436.424 464.559 437.299C464.921 438.174 465.452 438.969 466.122 439.638C466.791 440.308 467.586 440.839 468.461 441.201C469.336 441.564 470.273 441.75 471.22 441.75C472.167 441.75 473.104 441.564 473.979 441.201C474.854 440.839 475.649 440.308 476.318 439.638C476.988 438.969 477.519 438.174 477.881 437.299C478.244 436.424 478.43 435.487 478.43 434.54C478.431 433.44 478.195 432.352 477.74 431.35C478.62 429.839 479.073 428.118 479.05 426.37V426.37Z" fill="#F6C90E"/>
<path opacity="0.1" d="M438.64 410.93C439.23 408.75 442.47 407.71 446.01 408.51C446.43 405.886 447.765 403.495 449.778 401.76C451.791 400.025 454.353 399.058 457.01 399.03H457.74C456.722 398.72 455.664 398.562 454.6 398.56C451.943 398.588 449.381 399.555 447.368 401.29C445.355 403.025 444.02 405.416 443.6 408.04C440.06 407.24 436.82 408.28 436.23 410.46C435.64 412.64 438.14 415.46 441.87 416.46C442.569 416.654 443.286 416.778 444.01 416.83C440.44 415.76 438.05 413.16 438.64 410.93Z" fill="black"/>
<path opacity="0.1" d="M466.37 434.96C466.355 434.687 466.355 434.413 466.37 434.14C465.244 433.177 464.363 431.96 463.8 430.59C461.751 430.075 459.886 428.999 458.416 427.481C456.946 425.963 455.929 424.065 455.48 422C453.947 421.788 452.476 421.257 451.162 420.44C449.847 419.624 448.719 418.54 447.85 417.26C447.14 417.319 446.426 417.299 445.72 417.2C446.596 418.378 447.696 419.37 448.958 420.12C450.219 420.87 451.617 421.363 453.07 421.57C453.524 423.631 454.542 425.526 456.012 427.041C457.481 428.557 459.343 429.633 461.39 430.15C461.96 431.517 462.84 432.732 463.96 433.7C463.96 433.97 463.96 434.25 463.96 434.53C463.928 436.468 464.664 438.341 466.007 439.738C467.35 441.136 469.192 441.945 471.13 441.99C469.716 441.441 468.503 440.474 467.652 439.218C466.802 437.962 466.355 436.477 466.37 434.96V434.96Z" fill="black"/>
<path d="M454.107 423.496C454.683 423.058 454.676 422.08 454.092 421.31C453.507 420.54 452.566 420.271 451.99 420.709C451.414 421.146 451.421 422.125 452.006 422.895C452.59 423.664 453.531 423.934 454.107 423.496Z" fill="#FBBEBE"/>
</g>
<defs>
<linearGradient id="paint0_linear" x1="767.07" y1="569.95" x2="767.07" y2="397.83" gradientUnits="userSpaceOnUse">
<stop stop-color="#808080" stop-opacity="0.25"/>
<stop offset="0.54" stop-color="#808080" stop-opacity="0.12"/>
<stop offset="1" stop-color="#808080" stop-opacity="0.1"/>
</linearGradient>
<linearGradient id="paint1_linear" x1="62409" y1="67035.2" x2="62409" y2="56849.1" gradientUnits="userSpaceOnUse">
<stop stop-color="#808080" stop-opacity="0.25"/>
<stop offset="0.54" stop-color="#808080" stop-opacity="0.12"/>
<stop offset="1" stop-color="#808080" stop-opacity="0.1"/>
</linearGradient>
<clipPath id="clip0">
<rect width="1096" height="574.74" fill="white"/>
</clipPath>
</defs>
</svg>
